<svg xmlns="http://www.w3.org/2000/svg" viewBox="0 0 323.61 94.38"><defs><style>.cls-1{fill:#fff;}</style></defs><title>Recurso 4</title><g id="Capa_2" data-name="Capa 2"><g id="sitio"><path class="cls-1" d="M20.9,25.12l-4.66-2a9.49,9.49,0,0,1-2.73-1.5,2.36,2.36,0,0,1-.77-1.81q0-2.58,3.62-2.58a6.42,6.42,0,0,1,3.68,1,12,12,0,0,1,3,3.25l7.05-5.39Q26,8,16.24,8A15.51,15.51,0,0,0,6,11.29a10.72,10.72,0,0,0-4,8.68q0,7.73,10.24,12.2L16.48,34a16.57,16.57,0,0,1,3.25,1.72,2.39,2.39,0,0,1,.86,2q0,3-4.17,3-5.15,0-9-5.22L.29,40.88A16.46,16.46,0,0,0,6.73,47.5,18.92,18.92,0,0,0,16.42,50a16.34,16.34,0,0,0,10.64-3.41,11.25,11.25,0,0,0,4.2-9.23,10.35,10.35,0,0,0-2.54-7.14A21.45,21.45,0,0,0,20.9,25.12Z"/><polygon class="cls-1" points="86.15 28.98 64.2 8.01 60.82 8.01 60.82 49.22 71.37 49.22 71.37 28.68 93.32 49.96 96.7 49.96 96.7 8.75 86.15 8.75 86.15 28.98"/><path class="cls-1" d="M121.72,8l-18.4,41.21h11.35l1.47-3.37h14.53l1.48,3.37h11.34L125.09,8Zm-1.84,29.38L123.44,28l3.49,9.39Z"/><polygon class="cls-1" points="170.72 29.05 153.49 8.01 150.12 8.01 150.12 49.22 160.66 49.22 160.66 32.3 169 42.05 172.38 42.05 180.78 32.23 180.78 49.22 191.33 49.22 191.33 8.01 187.95 8.01 170.72 29.05"/><polygon class="cls-1" points="212.42 32.66 224.93 32.66 224.93 23.83 212.42 23.83 212.42 18.25 229.96 18.25 229.96 8.75 201.88 8.75 201.88 49.22 230.7 49.22 230.7 39.72 212.42 39.72 212.42 32.66"/><path class="cls-1" d="M258.54,17.7q6.63,0,10.55,6.62l8-5.45a20,20,0,0,0-7.6-8A21.13,21.13,0,0,0,258.6,8a21.68,21.68,0,0,0-15.54,6A19.81,19.81,0,0,0,236.71,29,19.83,19.83,0,0,0,243,44a21.67,21.67,0,0,0,15.51,6,21.16,21.16,0,0,0,11-2.86,20,20,0,0,0,7.6-8l-8-5.46q-3.93,6.63-10.55,6.63a10.75,10.75,0,0,1-8-3.07,11,11,0,0,1-3.07-8.15,11.18,11.18,0,0,1,3.1-8.22A10.67,10.67,0,0,1,258.54,17.7Z"/><path class="cls-1" d="M305,40.27a10.75,10.75,0,0,1-8-3.07A11,11,0,0,1,294,29.05a11.14,11.14,0,0,1,3.1-8.22A10.67,10.67,0,0,1,305,17.7q6.62,0,10.55,6.62l8-5.45a20.1,20.1,0,0,0-7.6-8A21.13,21.13,0,0,0,305.09,8a21.72,21.72,0,0,0-15.55,6A19.8,19.8,0,0,0,283.2,29a19.83,19.83,0,0,0,6.31,15A21.7,21.7,0,0,0,305,50a21.16,21.16,0,0,0,11-2.86,20.08,20.08,0,0,0,7.6-8l-8-5.46Q311.65,40.27,305,40.27Z"/><path class="cls-1" d="M39.73,24.27v25H50.28V18.4c-2.9,2.5-6.71,3.88-10.09,5.62Z"/><path class="cls-1" d="M54.44,0A23.29,23.29,0,0,0,52.1.27l-.24,0c-.54.09-1.06.23-1.58.35a23.44,23.44,0,0,0-13,8.63,8.81,8.81,0,0,0-.66.94,8.65,8.65,0,0,0-1.15,6.06,8.65,8.65,0,0,0,2.73,5c.12-.36.27-.76.43-1.2.29-.78.66-1.67,1.09-2.63a41.72,41.72,0,0,1,7-11,33.19,33.19,0,0,1,3.47-3.32,26.55,26.55,0,0,0-3,3.49A58.13,58.13,0,0,0,39.89,20.3l-.16.43h0c-.16.41-.32.83-.47,1.26,0,0-.33.91-.48,1.35v0c.3-.18.63-.35,1-.52h0l.46-.25c3.38-1.74,7.19-3.11,10.09-5.62a13.11,13.11,0,0,0,2.12-2.27,11,11,0,0,0,1.7-3.83C54.32,10,55,0,54.44,0Z"/><path class="cls-1" d="M8.92,68.36a1.88,1.88,0,0,0-.72-1.58,8.52,8.52,0,0,0-2.6-1.12,12.83,12.83,0,0,1-3-1.26A4,4,0,0,1,.48,60.91,3.8,3.8,0,0,1,2,57.81a6.25,6.25,0,0,1,4-1.22,6.7,6.7,0,0,1,2.89.6,4.72,4.72,0,0,1,2,1.71,4.4,4.4,0,0,1,.73,2.45H8.92a2.44,2.44,0,0,0-.76-1.91A3.16,3.16,0,0,0,6,58.75a3.25,3.25,0,0,0-2,.57,1.88,1.88,0,0,0-.74,1.58A1.71,1.71,0,0,0,4,62.33a9,9,0,0,0,2.6,1.11A12,12,0,0,1,9.5,64.67a4.69,4.69,0,0,1,1.61,1.58,4.05,4.05,0,0,1,.52,2.09,3.69,3.69,0,0,1-1.49,3.09,6.47,6.47,0,0,1-4.05,1.15A7.7,7.7,0,0,1,3,72a5.14,5.14,0,0,1-2.2-1.73A4.25,4.25,0,0,1,0,67.67H2.7a2.54,2.54,0,0,0,.88,2,3.85,3.85,0,0,0,2.51.72,3.33,3.33,0,0,0,2.12-.57A1.82,1.82,0,0,0,8.92,68.36Z"/><path class="cls-1" d="M14.19,57.8a1.37,1.37,0,0,1,.38-1,1.42,1.42,0,0,1,1.09-.4,1.43,1.43,0,0,1,1.09.4,1.47,1.47,0,0,1,0,2,1.47,1.47,0,0,1-1.09.39,1.45,1.45,0,0,1-1.09-.39A1.37,1.37,0,0,1,14.19,57.8ZM17,72.37h-2.6V60.81H17Z"/><path class="cls-1" d="M26.7,69.23a1.18,1.18,0,0,0-.58-1.06,6,6,0,0,0-1.89-.64A9.84,9.84,0,0,1,22,66.82a3,3,0,0,1-1.94-2.72,3.07,3.07,0,0,1,1.26-2.5,5,5,0,0,1,3.21-1,5.16,5.16,0,0,1,3.35,1,3.25,3.25,0,0,1,1.27,2.66H26.57A1.61,1.61,0,0,0,26,63a2.12,2.12,0,0,0-1.47-.49,2.34,2.34,0,0,0-1.4.39A1.26,1.26,0,0,0,22.6,64a1.06,1.06,0,0,0,.5.93,7.23,7.23,0,0,0,2,.67,9.47,9.47,0,0,1,2.39.8,3.31,3.31,0,0,1,1.3,1.12,2.84,2.84,0,0,1,.42,1.58A3,3,0,0,1,28,71.61a5.5,5.5,0,0,1-3.39,1A6,6,0,0,1,22,72.07a4.15,4.15,0,0,1-1.74-1.41,3.35,3.35,0,0,1-.61-1.94h2.52a1.8,1.8,0,0,0,.69,1.42,2.73,2.73,0,0,0,1.7.5,2.6,2.6,0,0,0,1.56-.39A1.2,1.2,0,0,0,26.7,69.23Z"/><path class="cls-1" d="M35.2,58v2.82h2v1.92h-2v6.45a1.45,1.45,0,0,0,.26,1,1.22,1.22,0,0,0,.94.29,4.09,4.09,0,0,0,.91-.1v2a6.52,6.52,0,0,1-1.71.24c-2,0-3-1.1-3-3.3V62.73H30.7V60.81h1.91V58Z"/><path class="cls-1" d="M44.76,72.58a5.42,5.42,0,0,1-4-1.55,5.66,5.66,0,0,1-1.53-4.14v-.32a6.89,6.89,0,0,1,.67-3.1,5.08,5.08,0,0,1,1.87-2.12,5,5,0,0,1,2.7-.76,4.53,4.53,0,0,1,3.65,1.51,6.34,6.34,0,0,1,1.29,4.26v1H41.84a3.51,3.51,0,0,0,1,2.27,2.87,2.87,0,0,0,2.11.83,3.51,3.51,0,0,0,2.9-1.44l1.4,1.33A4.67,4.67,0,0,1,47.36,72,5.81,5.81,0,0,1,44.76,72.58Zm-.31-9.9a2.18,2.18,0,0,0-1.73.74,3.88,3.88,0,0,0-.84,2.09h4.95v-.19a3.25,3.25,0,0,0-.69-2A2.19,2.19,0,0,0,44.45,62.68Z"/><path class="cls-1" d="M54.29,60.81l.07,1.2a4.21,4.21,0,0,1,3.34-1.42,3.19,3.19,0,0,1,3.17,1.78,4.1,4.1,0,0,1,3.55-1.78,3.58,3.58,0,0,1,2.85,1.06,4.72,4.72,0,0,1,1,3.12v7.6h-2.6V64.85a2.31,2.31,0,0,0-.48-1.62,2.12,2.12,0,0,0-1.6-.51,2.17,2.17,0,0,0-1.44.47,2.52,2.52,0,0,0-.79,1.25v7.93h-2.6V64.76a1.85,1.85,0,0,0-2.08-2A2.27,2.27,0,0,0,54.44,64v8.38h-2.6V60.81Z"/><path class="cls-1" d="M78.24,72.37a3.6,3.6,0,0,1-.3-1.08,4.38,4.38,0,0,1-5.88.3A3.19,3.19,0,0,1,71,69.13a3.3,3.3,0,0,1,1.37-2.84,6.67,6.67,0,0,1,3.93-1h1.59v-.75a2,2,0,0,0-.5-1.44,2,2,0,0,0-1.53-.54,2.32,2.32,0,0,0-1.45.44,1.37,1.37,0,0,0-.57,1.13H71.21a2.89,2.89,0,0,1,.63-1.78,4.28,4.28,0,0,1,1.71-1.3A6.07,6.07,0,0,1,76,60.59a4.84,4.84,0,0,1,3.24,1,3.62,3.62,0,0,1,1.24,2.87V69.7a5.94,5.94,0,0,0,.44,2.49v.18ZM75.38,70.5a2.93,2.93,0,0,0,1.45-.38,2.35,2.35,0,0,0,1-1V66.94h-1.4a3.89,3.89,0,0,0-2.17.5,1.64,1.64,0,0,0-.72,1.42,1.54,1.54,0,0,0,.49,1.2A2,2,0,0,0,75.38,70.5Z"/><path class="cls-1" d="M102.09,72.37h-2.7l-6.94-11v11h-2.7V56.81h2.7l7,11.08V56.81h2.68Z"/><path class="cls-1" d="M112.38,72.37a4.32,4.32,0,0,1-.3-1.08,4,4,0,0,1-3,1.29,4.08,4.08,0,0,1-2.84-1,3.16,3.16,0,0,1-1.11-2.46,3.29,3.29,0,0,1,1.38-2.84,6.63,6.63,0,0,1,3.93-1H112v-.75a2.05,2.05,0,0,0-.5-1.44,2,2,0,0,0-1.53-.54,2.35,2.35,0,0,0-1.46.44,1.39,1.39,0,0,0-.56,1.13h-2.6a2.89,2.89,0,0,1,.63-1.78,4.25,4.25,0,0,1,1.72-1.3,6.07,6.07,0,0,1,2.42-.47,4.87,4.87,0,0,1,3.24,1,3.69,3.69,0,0,1,1.24,2.87V69.7a6,6,0,0,0,.43,2.49v.18Zm-2.85-1.87a3,3,0,0,0,1.45-.38,2.46,2.46,0,0,0,1-1V66.94h-1.4a3.87,3.87,0,0,0-2.17.5,1.62,1.62,0,0,0-.73,1.42,1.55,1.55,0,0,0,.5,1.2A1.94,1.94,0,0,0,109.53,70.5Z"/><path class="cls-1" d="M122.5,70.51a2.36,2.36,0,0,0,1.62-.57,1.94,1.94,0,0,0,.68-1.4h2.45a3.86,3.86,0,0,1-.67,2A4.65,4.65,0,0,1,124.87,72a5.15,5.15,0,0,1-2.33.54A4.93,4.93,0,0,1,118.69,71a6.22,6.22,0,0,1-1.42-4.34V66.4a6.13,6.13,0,0,1,1.41-4.22,4.87,4.87,0,0,1,3.84-1.59,4.78,4.78,0,0,1,3.37,1.2A4.34,4.34,0,0,1,127.25,65H124.8a2.34,2.34,0,0,0-.68-1.63,2.16,2.16,0,0,0-1.62-.64,2.26,2.26,0,0,0-1.94.91,4.64,4.64,0,0,0-.7,2.77v.42a4.73,4.73,0,0,0,.68,2.8A2.28,2.28,0,0,0,122.5,70.51Z"/><path class="cls-1" d="M129.65,57.8a1.37,1.37,0,0,1,.38-1,1.42,1.42,0,0,1,1.09-.4,1.43,1.43,0,0,1,1.09.4,1.47,1.47,0,0,1,0,2,1.47,1.47,0,0,1-1.09.39,1.45,1.45,0,0,1-1.09-.39A1.37,1.37,0,0,1,129.65,57.8Zm2.76,14.57h-2.6V60.81h2.6Z"/><path class="cls-1" d="M135.19,66.48a6.81,6.81,0,0,1,.67-3.06,5,5,0,0,1,1.89-2.1,5.44,5.44,0,0,1,2.8-.73,5,5,0,0,1,3.8,1.51,5.9,5.9,0,0,1,1.58,4v.6a6.88,6.88,0,0,1-.66,3.06,4.89,4.89,0,0,1-1.88,2.09,5.37,5.37,0,0,1-2.83.73A5,5,0,0,1,136.66,71a6.22,6.22,0,0,1-1.47-4.34Zm2.6.22a4.68,4.68,0,0,0,.73,2.8,2.41,2.41,0,0,0,2,1,2.36,2.36,0,0,0,2.05-1,5.11,5.11,0,0,0,.73-3,4.63,4.63,0,0,0-.75-2.78,2.4,2.4,0,0,0-2-1,2.38,2.38,0,0,0-2,1A5,5,0,0,0,137.79,66.7Z"/><path class="cls-1" d="M151,60.81l.08,1.33a4.17,4.17,0,0,1,3.37-1.55c2.4,0,3.63,1.38,3.67,4.14v7.64h-2.59V64.88a2.35,2.35,0,0,0-.48-1.63,2,2,0,0,0-1.56-.53,2.51,2.51,0,0,0-2.34,1.42v8.23h-2.59V60.81Z"/><path class="cls-1" d="M168.09,72.37a4.32,4.32,0,0,1-.3-1.08,4,4,0,0,1-3,1.29,4.08,4.08,0,0,1-2.84-1,3.15,3.15,0,0,1-1.1-2.46,3.28,3.28,0,0,1,1.37-2.84,6.63,6.63,0,0,1,3.93-1h1.59v-.75a2.05,2.05,0,0,0-.5-1.44,2,2,0,0,0-1.53-.54,2.3,2.3,0,0,0-1.45.44,1.37,1.37,0,0,0-.57,1.13h-2.6a2.89,2.89,0,0,1,.63-1.78,4.25,4.25,0,0,1,1.72-1.3,6.07,6.07,0,0,1,2.42-.47,4.87,4.87,0,0,1,3.24,1,3.69,3.69,0,0,1,1.24,2.87V69.7a6,6,0,0,0,.43,2.49v.18Zm-2.85-1.87a3,3,0,0,0,1.45-.38,2.46,2.46,0,0,0,1-1V66.94h-1.4a3.87,3.87,0,0,0-2.17.5,1.62,1.62,0,0,0-.73,1.42,1.55,1.55,0,0,0,.5,1.2A2,2,0,0,0,165.24,70.5Z"/><path class="cls-1" d="M176.23,72.37h-2.6V56h2.6Z"/><path class="cls-1" d="M184.89,66.5a6.92,6.92,0,0,1,1.24-4.29,4,4,0,0,1,3.33-1.62,3.8,3.8,0,0,1,3,1.28V56H195V72.37h-2.35l-.13-1.2a3.81,3.81,0,0,1-3.1,1.41A4,4,0,0,1,186.15,71,7.11,7.11,0,0,1,184.89,66.5Zm2.6.23a4.84,4.84,0,0,0,.68,2.75,2.19,2.19,0,0,0,1.93,1A2.46,2.46,0,0,0,192.43,69V64.11a2.42,2.42,0,0,0-2.31-1.39,2.22,2.22,0,0,0-2,1A5.4,5.4,0,0,0,187.49,66.73Z"/><path class="cls-1" d="M203.26,72.58a5.39,5.39,0,0,1-4-1.55,5.66,5.66,0,0,1-1.53-4.14v-.32a6.89,6.89,0,0,1,.67-3.1,5.08,5.08,0,0,1,1.87-2.12,4.93,4.93,0,0,1,2.69-.76,4.51,4.51,0,0,1,3.65,1.51,6.34,6.34,0,0,1,1.29,4.26v1h-7.55a3.45,3.45,0,0,0,1,2.27,2.89,2.89,0,0,0,2.11.83,3.53,3.53,0,0,0,2.91-1.44l1.4,1.33A4.67,4.67,0,0,1,205.87,72,5.85,5.85,0,0,1,203.26,72.58Zm-.31-9.9a2.17,2.17,0,0,0-1.72.74,3.88,3.88,0,0,0-.84,2.09h5v-.19a3.19,3.19,0,0,0-.7-2A2.18,2.18,0,0,0,203,62.68Z"/><path class="cls-1" d="M220,56.81l4.49,11.92L229,56.81h3.49V72.37h-2.69V67.24l.26-6.86-4.59,12H223.5l-4.58-12,.27,6.85v5.13h-2.7V56.81Z"/><path class="cls-1" d="M240.94,72.58a5.42,5.42,0,0,1-4-1.55,5.66,5.66,0,0,1-1.53-4.14v-.32a6.89,6.89,0,0,1,.67-3.1,5.08,5.08,0,0,1,1.87-2.12,5,5,0,0,1,2.7-.76,4.53,4.53,0,0,1,3.65,1.51,6.39,6.39,0,0,1,1.28,4.26v1H238a3.5,3.5,0,0,0,.95,2.27,2.9,2.9,0,0,0,2.11.83A3.53,3.53,0,0,0,244,69.07l1.4,1.33A4.67,4.67,0,0,1,243.54,72,5.84,5.84,0,0,1,240.94,72.58Zm-.31-9.9a2.18,2.18,0,0,0-1.73.74,3.88,3.88,0,0,0-.84,2.09H243v-.19a3.19,3.19,0,0,0-.7-2A2.16,2.16,0,0,0,240.63,62.68Zm.58-6.73h3l-3,3.24h-2.08Z"/><path class="cls-1" d="M251.28,58v2.82h2v1.92h-2v6.45a1.45,1.45,0,0,0,.26,1,1.22,1.22,0,0,0,.94.29,4.09,4.09,0,0,0,.91-.1v2a6.64,6.64,0,0,1-1.71.24q-3,0-3-3.3V62.73h-1.9V60.81h1.9V58Z"/><path class="cls-1" d="M261.8,63.18a6.23,6.23,0,0,0-1.06-.09,2.4,2.4,0,0,0-2.41,1.37v7.91h-2.59V60.81h2.48l.06,1.29a2.93,2.93,0,0,1,2.61-1.51,2.46,2.46,0,0,1,.92.15Z"/><path class="cls-1" d="M263.88,57.8a1.37,1.37,0,0,1,.38-1,1.4,1.4,0,0,1,1.08-.4,1.42,1.42,0,0,1,1.09.4,1.44,1.44,0,0,1,0,2,1.45,1.45,0,0,1-1.09.39,1.43,1.43,0,0,1-1.08-.39A1.37,1.37,0,0,1,263.88,57.8Zm2.76,14.57H264V60.81h2.6Z"/><path class="cls-1" d="M274.65,70.51a2.36,2.36,0,0,0,1.62-.57,1.94,1.94,0,0,0,.68-1.4h2.45a3.88,3.88,0,0,1-.68,2A4.49,4.49,0,0,1,277,72a5.12,5.12,0,0,1-2.33.54A4.9,4.9,0,0,1,270.84,71a6.22,6.22,0,0,1-1.42-4.34V66.4a6.13,6.13,0,0,1,1.41-4.22,4.87,4.87,0,0,1,3.84-1.59,4.74,4.74,0,0,1,3.36,1.2A4.35,4.35,0,0,1,279.4,65H277a2.38,2.38,0,0,0-.68-1.63,2.16,2.16,0,0,0-1.62-.64,2.26,2.26,0,0,0-1.94.91,4.64,4.64,0,0,0-.7,2.77v.42a4.73,4.73,0,0,0,.68,2.8A2.28,2.28,0,0,0,274.65,70.51Z"/><path class="cls-1" d="M288.71,72.37a3.6,3.6,0,0,1-.3-1.08,4.38,4.38,0,0,1-5.88.3,3.15,3.15,0,0,1-1.1-2.46,3.3,3.3,0,0,1,1.37-2.84,6.65,6.65,0,0,1,3.93-1h1.59v-.75a2.05,2.05,0,0,0-.5-1.44,2,2,0,0,0-1.53-.54,2.3,2.3,0,0,0-1.45.44,1.37,1.37,0,0,0-.57,1.13h-2.6a2.89,2.89,0,0,1,.63-1.78,4.32,4.32,0,0,1,1.72-1.3,6.07,6.07,0,0,1,2.42-.47,4.87,4.87,0,0,1,3.24,1,3.66,3.66,0,0,1,1.24,2.87V69.7a5.79,5.79,0,0,0,.44,2.49v.18Zm-2.86-1.87a3,3,0,0,0,1.45-.38,2.46,2.46,0,0,0,1-1V66.94h-1.4a3.89,3.89,0,0,0-2.17.5,1.65,1.65,0,0,0-.73,1.42,1.55,1.55,0,0,0,.5,1.2A2,2,0,0,0,285.85,70.5Z"/><path class="cls-1" d="M299.48,66.5a6.85,6.85,0,0,1,1.24-4.29A4,4,0,0,1,304,60.59a3.77,3.77,0,0,1,3,1.28V56h2.6V72.37h-2.35l-.13-1.2A3.84,3.84,0,0,1,304,72.58,4,4,0,0,1,300.73,71,7.17,7.17,0,0,1,299.48,66.5Zm2.59.23a4.84,4.84,0,0,0,.68,2.75,2.2,2.2,0,0,0,1.93,1A2.46,2.46,0,0,0,307,69V64.11a2.42,2.42,0,0,0-2.31-1.39,2.2,2.2,0,0,0-1.94,1A5.31,5.31,0,0,0,302.07,66.73Z"/><path class="cls-1" d="M317.85,72.58a5.38,5.38,0,0,1-4-1.55,5.62,5.62,0,0,1-1.54-4.14v-.32a6.89,6.89,0,0,1,.67-3.1,5.08,5.08,0,0,1,1.87-2.12,5,5,0,0,1,2.7-.76,4.53,4.53,0,0,1,3.65,1.51,6.34,6.34,0,0,1,1.29,4.26v1h-7.56a3.51,3.51,0,0,0,1,2.27,2.89,2.89,0,0,0,2.11.83,3.5,3.5,0,0,0,2.9-1.44l1.4,1.33A4.67,4.67,0,0,1,320.45,72,5.81,5.81,0,0,1,317.85,72.58Zm-.31-9.9a2.18,2.18,0,0,0-1.73.74,3.88,3.88,0,0,0-.84,2.09h4.95v-.19a3.25,3.25,0,0,0-.69-2A2.19,2.19,0,0,0,317.54,62.68Z"/><path class="cls-1" d="M88.78,89.08A5.62,5.62,0,0,1,86.94,93a6.3,6.3,0,0,1-4.28,1.4,6.08,6.08,0,0,1-3.28-.89A5.72,5.72,0,0,1,77.19,91a9.15,9.15,0,0,1-.81-3.79V85.74a9,9,0,0,1,.79-3.89,6,6,0,0,1,2.24-2.6,6.33,6.33,0,0,1,3.38-.91A6.05,6.05,0,0,1,87,79.74a5.83,5.83,0,0,1,1.83,4h-2.7a3.86,3.86,0,0,0-1-2.43,3.25,3.25,0,0,0-2.31-.74,3.15,3.15,0,0,0-2.71,1.29,6.38,6.38,0,0,0-1,3.79V87a6.88,6.88,0,0,0,.9,3.86,3,3,0,0,0,2.65,1.33,3.48,3.48,0,0,0,2.4-.72,3.7,3.7,0,0,0,1-2.39Z"/><path class="cls-1" d="M98.32,94.16a4.32,4.32,0,0,1-.3-1.08,4.37,4.37,0,0,1-5.89.3A3.2,3.2,0,0,1,91,90.91a3.29,3.29,0,0,1,1.38-2.84,6.68,6.68,0,0,1,3.94-1h1.6v-.76a2.05,2.05,0,0,0-.51-1.45,2,2,0,0,0-1.53-.54,2.29,2.29,0,0,0-1.46.45,1.36,1.36,0,0,0-.57,1.13h-2.6a2.92,2.92,0,0,1,.63-1.79,4.32,4.32,0,0,1,1.72-1.3,6.16,6.16,0,0,1,2.43-.47,4.88,4.88,0,0,1,3.25,1,3.69,3.69,0,0,1,1.24,2.88v5.23A6,6,0,0,0,101,94v.18Zm-2.86-1.87a2.93,2.93,0,0,0,1.45-.38,2.51,2.51,0,0,0,1-1V88.72H96.53a3.87,3.87,0,0,0-2.17.5,1.63,1.63,0,0,0-.73,1.43,1.49,1.49,0,0,0,.5,1.19A1.9,1.9,0,0,0,95.46,92.29Z"/><path class="cls-1" d="M106.16,82.57l.07,1.21a4.19,4.19,0,0,1,3.35-1.43,3.19,3.19,0,0,1,3.18,1.78,4.1,4.1,0,0,1,3.56-1.78,3.58,3.58,0,0,1,2.85,1.06,4.63,4.63,0,0,1,1,3.13v7.62h-2.6V86.62a2.31,2.31,0,0,0-.48-1.62,2.11,2.11,0,0,0-1.6-.52A2.15,2.15,0,0,0,114,85a2.47,2.47,0,0,0-.79,1.25v8h-2.6V86.53a1.87,1.87,0,0,0-2.09-2,2.29,2.29,0,0,0-2.22,1.28v8.4H103.7V82.57Z"/><path class="cls-1" d="M133.42,88.48a7,7,0,0,1-1.2,4.3,4,4,0,0,1-3.32,1.6,3.76,3.76,0,0,1-3.17-1.47l-.13,1.25h-2.36V77.7h2.61v6a3.75,3.75,0,0,1,3-1.33,4,4,0,0,1,3.33,1.58,7,7,0,0,1,1.21,4.4Zm-2.6-.22a4.87,4.87,0,0,0-.67-2.83,2.2,2.2,0,0,0-1.93-1A2.42,2.42,0,0,0,125.85,86v4.78a2.43,2.43,0,0,0,2.4,1.51,2.18,2.18,0,0,0,1.88-.91,4.8,4.8,0,0,0,.69-2.75Z"/><path class="cls-1" d="M136.05,79.55a1.33,1.33,0,0,1,.38-1,1.41,1.41,0,0,1,1.09-.4,1.43,1.43,0,0,1,1.09.4,1.33,1.33,0,0,1,.38,1,1.31,1.31,0,0,1-.38,1,1.43,1.43,0,0,1-1.09.4,1.41,1.41,0,0,1-1.09-.4A1.31,1.31,0,0,1,136.05,79.55Zm2.76,14.61h-2.6V82.57h2.6Z"/><path class="cls-1" d="M141.6,88.26a6.82,6.82,0,0,1,.67-3.07,5,5,0,0,1,1.9-2.11,5.45,5.45,0,0,1,2.81-.73,5.07,5.07,0,0,1,3.81,1.51,6,6,0,0,1,1.58,4v.61a6.92,6.92,0,0,1-.66,3.07,5,5,0,0,1-1.88,2.09,5.44,5.44,0,0,1-2.84.74,5,5,0,0,1-3.93-1.64,6.26,6.26,0,0,1-1.47-4.35Zm2.6.22a4.68,4.68,0,0,0,.74,2.8,2.57,2.57,0,0,0,4.11,0,5.16,5.16,0,0,0,.74-3,4.57,4.57,0,0,0-.76-2.79,2.55,2.55,0,0,0-4.08,0A5.09,5.09,0,0,0,144.2,88.48Z"/><path class="cls-1" d="M173.09,89.08a5.67,5.67,0,0,1-1.85,3.9,6.28,6.28,0,0,1-4.27,1.4,6.09,6.09,0,0,1-3.29-.89A5.72,5.72,0,0,1,161.49,91a9.15,9.15,0,0,1-.8-3.79V85.74a9.16,9.16,0,0,1,.78-3.89,6,6,0,0,1,2.24-2.6,6.37,6.37,0,0,1,3.39-.91,6,6,0,0,1,4.15,1.4,5.83,5.83,0,0,1,1.84,4h-2.7a3.91,3.91,0,0,0-1-2.43,3.29,3.29,0,0,0-2.31-.74,3.17,3.17,0,0,0-2.72,1.29,6.45,6.45,0,0,0-1,3.79V87a6.88,6.88,0,0,0,.9,3.86A3,3,0,0,0,167,92.19a3.51,3.51,0,0,0,2.4-.72,3.8,3.8,0,0,0,1-2.39Z"/><path class="cls-1" d="M178.47,94.16h-2.61V77.7h2.61Z"/><path class="cls-1" d="M181.75,79.55a1.33,1.33,0,0,1,.38-1,1.4,1.4,0,0,1,1.08-.4,1.44,1.44,0,0,1,1.1.4,1.37,1.37,0,0,1,.38,1,1.35,1.35,0,0,1-.38,1,1.44,1.44,0,0,1-1.1.4,1.4,1.4,0,0,1-1.08-.4A1.31,1.31,0,0,1,181.75,79.55Zm2.76,14.61h-2.6V82.57h2.6Z"/><path class="cls-1" d="M190.23,82.57l.08,1.21a4.17,4.17,0,0,1,3.34-1.43,3.22,3.22,0,0,1,3.19,1.78,4.09,4.09,0,0,1,3.55-1.78,3.62,3.62,0,0,1,2.86,1.06,4.73,4.73,0,0,1,1,3.13v7.62H201.6V86.62a2.31,2.31,0,0,0-.48-1.62,2.08,2.08,0,0,0-1.6-.52,2.17,2.17,0,0,0-1.45.48,2.53,2.53,0,0,0-.78,1.25v8h-2.61V86.53a1.86,1.86,0,0,0-2.09-2,2.31,2.31,0,0,0-2.22,1.28v8.4h-2.6V82.57Z"/><path class="cls-1" d="M214.25,94.16a4.32,4.32,0,0,1-.3-1.08,4.37,4.37,0,0,1-5.89.3A3.2,3.2,0,0,1,207,90.91a3.29,3.29,0,0,1,1.38-2.84,6.68,6.68,0,0,1,3.94-1h1.6v-.76a2.05,2.05,0,0,0-.51-1.45,2,2,0,0,0-1.53-.54,2.29,2.29,0,0,0-1.46.45,1.36,1.36,0,0,0-.57,1.13h-2.6a2.92,2.92,0,0,1,.63-1.79,4.32,4.32,0,0,1,1.72-1.3,6.16,6.16,0,0,1,2.43-.47,4.88,4.88,0,0,1,3.25,1,3.69,3.69,0,0,1,1.24,2.88v5.23a6,6,0,0,0,.44,2.5v.18Zm-2.86-1.87a3,3,0,0,0,1.45-.38,2.51,2.51,0,0,0,1-1V88.72h-1.41a3.87,3.87,0,0,0-2.17.5,1.63,1.63,0,0,0-.73,1.43,1.49,1.49,0,0,0,.5,1.19A1.9,1.9,0,0,0,211.39,92.29Zm1.45-14.59h3l-3,3.25h-2.09Z"/><path class="cls-1" d="M222.9,79.75v2.82h2v1.92h-2V91a1.47,1.47,0,0,0,.26,1,1.26,1.26,0,0,0,.94.29,3.59,3.59,0,0,0,.91-.11v2a6.55,6.55,0,0,1-1.71.25q-3,0-3-3.32V84.49h-1.91V82.57h1.91V79.75Z"/><path class="cls-1" d="M227.38,79.55a1.37,1.37,0,0,1,.38-1,1.42,1.42,0,0,1,1.09-.4,1.43,1.43,0,0,1,1.09.4,1.34,1.34,0,0,1,.39,1,1.32,1.32,0,0,1-.39,1,1.43,1.43,0,0,1-1.09.4,1.42,1.42,0,0,1-1.09-.4A1.35,1.35,0,0,1,227.38,79.55Zm2.76,14.61h-2.6V82.57h2.6Z"/><path class="cls-1" d="M238.18,92.3a2.36,2.36,0,0,0,1.62-.57,2,2,0,0,0,.69-1.41h2.45a3.87,3.87,0,0,1-.67,2,4.51,4.51,0,0,1-1.72,1.48,5.16,5.16,0,0,1-2.33.55,4.94,4.94,0,0,1-3.86-1.58,6.25,6.25,0,0,1-1.43-4.35v-.27a6.12,6.12,0,0,1,1.42-4.24,4.88,4.88,0,0,1,3.85-1.59,4.72,4.72,0,0,1,3.37,1.21,4.29,4.29,0,0,1,1.37,3.16h-2.45a2.43,2.43,0,0,0-.68-1.64,2.2,2.2,0,0,0-1.63-.64,2.3,2.3,0,0,0-2,.92,4.61,4.61,0,0,0-.69,2.78v.42a4.72,4.72,0,0,0,.68,2.81A2.28,2.28,0,0,0,238.18,92.3Z"/><path class="cls-1" d="M244.86,88.26a6.82,6.82,0,0,1,.67-3.07,5,5,0,0,1,1.9-2.11,5.45,5.45,0,0,1,2.81-.73,5.07,5.07,0,0,1,3.81,1.51,6,6,0,0,1,1.58,4v.61a6.92,6.92,0,0,1-.66,3.07,5,5,0,0,1-1.88,2.09,5.44,5.44,0,0,1-2.84.74,5,5,0,0,1-3.93-1.64,6.26,6.26,0,0,1-1.47-4.35Zm2.6.22a4.68,4.68,0,0,0,.74,2.8,2.57,2.57,0,0,0,4.11,0,5.16,5.16,0,0,0,.74-3,4.57,4.57,0,0,0-.76-2.79,2.55,2.55,0,0,0-4.08,0A5.09,5.09,0,0,0,247.46,88.48Z"/></g></g></svg>