<svg xmlns="http://www.w3.org/2000/svg" xmlns:xlink="http://www.w3.org/1999/xlink" viewBox="0 0 496.72 116.17"><defs><style>.cls-1{fill:none;}.cls-2{fill:#25414e;}.cls-3{clip-path:url(#clip-path);}.cls-4{fill:#16b14f;}.cls-5{fill:#16b150;}.cls-6{fill:#19b050;}.cls-7{fill:#1baf51;}.cls-8{fill:#1caf51;}.cls-9{fill:#1eae52;}.cls-10{fill:#1dae52;}.cls-11{fill:#1aad53;}.cls-12{fill:#1cad53;}.cls-13{fill:#1dac54;}.cls-14{fill:#1dab54;}.cls-15{fill:#1eaa54;}.cls-16{fill:#1eaa55;}.cls-17{fill:#1eaa56;}.cls-18{fill:#1fa956;}.cls-19{fill:#1ca957;}.cls-20{fill:#1da857;}.cls-21{fill:#1ea858;}.cls-22{fill:#1ea759;}.cls-23{fill:#1fa659;}.cls-24{fill:#1fa559;}.cls-25{fill:#20a55a;}.cls-26{fill:#1da45a;}.cls-27{fill:#1da45b;}.cls-28{fill:#1ea45b;}.cls-29{fill:#1ea45c;}.cls-30{fill:#1fa35c;}.cls-31{fill:#1fa35d;}.cls-32{fill:#20a15d;}.cls-33{fill:#1da15e;}.cls-34{fill:#1ea05f;}.cls-35{fill:#1fa060;}.cls-36{fill:#1f9f61;}.cls-37{fill:#209f61;}.cls-38{fill:#219e62;}.cls-39{fill:#1e9d62;}.cls-40{fill:#1f9d63;}.cls-41{fill:#1e9d63;}.cls-42{fill:#1f9c64;}.cls-43{fill:#209c64;}.cls-44{fill:#209b65;}.cls-45{fill:#219b65;}.cls-46{fill:#219a66;}.cls-47{fill:#1e9a66;}.cls-48{fill:#1e9a67;}.cls-49{fill:#1f9967;}.cls-50{fill:#1f9867;}.cls-51{fill:#209868;}.cls-52{fill:#219768;}.cls-53{fill:#209769;}.cls-54{fill:#21976a;}.cls-55{fill:#1e966a;}.cls-56{fill:#1f966a;}.cls-57{fill:#1f966b;}.cls-58{fill:#1f966c;}.cls-59{fill:#20956c;}.cls-60{fill:#20946c;}.cls-61{fill:#21946d;}.cls-62{fill:#21936d;}.cls-63{fill:#22936d;}.cls-64{fill:#1f936e;}.cls-65{fill:#1f926f;}.cls-66{fill:#20926f;}.cls-67{fill:#21916f;}.cls-68{fill:#219170;}.cls-69{fill:#229070;}.cls-70{fill:#219070;}.cls-71{fill:#229071;}.cls-72{fill:#1f8f71;}.cls-73{fill:#208f72;}.cls-74{fill:#218e72;}.cls-75{fill:#218e73;}.cls-76{fill:#218d73;}.cls-77{fill:#228c73;}.cls-78{fill:#228c74;}.cls-79{fill:#208b74;}.cls-80{fill:#218b75;}.cls-81{fill:#228a75;}.cls-82{fill:#228a76;}.cls-83{fill:#238976;}.cls-84{fill:#238977;}.cls-85{fill:#218877;}.cls-86{fill:#228777;}.cls-87{fill:#238678;}.cls-88{fill:#238679;}.cls-89{fill:#248679;}.cls-90{fill:#228579;}.cls-91{fill:#238479;}.cls-92{fill:#23847a;}.cls-93{fill:#23837a;}.cls-94{fill:#24837b;}.cls-95{fill:#24827b;}.cls-96{fill:#25827b;}.cls-97{fill:#23817c;}.cls-98{fill:#24807d;}.cls-99{fill:#25807d;}.cls-100{fill:#237f7e;}.cls-101{fill:#247e7e;}.cls-102{fill:#257e7e;}.cls-103{fill:#58595b;}.cls-104{fill:#2a658a;}.cls-105{clip-path:url(#clip-path-2);}.cls-106{fill:#247e7f;}.cls-107{fill:#257d7f;}.cls-108{fill:#267c7f;}.cls-109{fill:#267c80;}.cls-110{fill:#247b80;}.cls-111{fill:#257b80;}.cls-112{fill:#257a80;}.cls-113{fill:#267a80;}.cls-114{fill:#267980;}.cls-115{fill:#277980;}.cls-116{fill:#277981;}.cls-117{fill:#257881;}.cls-118{fill:#267781;}.cls-119{fill:#277682;}.cls-120{fill:#277583;}.cls-121{fill:#267482;}.cls-122{fill:#267483;}.cls-123{fill:#277384;}.cls-124{fill:#287284;}.cls-125{fill:#267285;}.cls-126{fill:#267185;}.cls-127{fill:#277185;}.cls-128{fill:#277085;}.cls-129{fill:#286f85;}.cls-130{fill:#286f86;}.cls-131{fill:#276e86;}.cls-132{fill:#276e87;}.cls-133{fill:#286d86;}.cls-134{fill:#286d87;}.cls-135{fill:#286c87;}.cls-136{fill:#296c87;}.cls-137{fill:#296c88;}.cls-138{fill:#286b88;}.cls-139{fill:#276b88;}.cls-140{fill:#286a89;}.cls-141{fill:#296a89;}.cls-142{fill:#296989;}.cls-143{fill:#286889;}.cls-144{fill:#28688a;}.cls-145{fill:#29678a;}.cls-146{fill:#2a668a;}.cls-147{fill:#29668a;}</style><clipPath id="clip-path"><path class="cls-1" d="M83,.06c-1.19.07-2.38.21-3.59.4L79,.53c-.82.14-1.62.35-2.42.54a35.15,35.15,0,0,0-16.15,9,35.6,35.6,0,0,0-3.74,4.22,12.86,12.86,0,0,0-1,1.44A13.36,13.36,0,0,0,58.11,32.6q.28-.84.66-1.83c.45-1.2,1-2.57,1.67-4A64.2,64.2,0,0,1,71.18,10,49.4,49.4,0,0,1,76.5,4.89a39.08,39.08,0,0,0-4.58,5.33A88.9,88.9,0,0,0,60.69,31.15c-.09.21-.17.44-.25.66h0c-.24.64-.49,1.27-.73,1.93,0,0-.5,1.4-.73,2.08v0c.47-.27,1-.53,1.47-.8h0l.7-.39c5.19-2.67,11-4.77,15.45-8.61a19.88,19.88,0,0,0,3.25-3.47,16.94,16.94,0,0,0,2.61-5.87C82.78,15.33,83.84,0,83,.06Z"/></clipPath><clipPath id="clip-path-2"><path class="cls-1" d="M495.22,91.4H1.5a1.5,1.5,0,0,1,0-3H495.22a1.5,1.5,0,0,1,0,3Z"/></clipPath></defs><title>SINAMECC-logo-color</title><g id="Layer_2" data-name="Layer 2"><g id="Capa_1" data-name="Capa 1"><path class="cls-2" d="M31.6,38.53l-7.14-3a14.69,14.69,0,0,1-4.18-2.3,3.6,3.6,0,0,1-1.17-2.77q0-3.94,5.54-3.94a9.77,9.77,0,0,1,5.64,1.6,18.1,18.1,0,0,1,4.6,5l10.8-8.26q-6.3-12.5-21.23-12.49-9.57,0-15.63,5A16.41,16.41,0,0,0,2.77,30.64q0,11.84,15.68,18.69l6.39,2.82a24.84,24.84,0,0,1,5,2.63,3.69,3.69,0,0,1,1.32,3.1q0,4.5-6.39,4.5-7.87,0-13.8-8L0,62.67A25.19,25.19,0,0,0,9.91,72.81a29.06,29.06,0,0,0,14.83,3.76q9.87,0,16.3-5.22t6.43-14.13a15.82,15.82,0,0,0-3.9-10.94Q39.68,41.91,31.6,38.53Z"/><polygon class="cls-2" points="131.54 44.45 97.91 12.33 92.75 12.33 92.75 75.44 108.9 75.44 108.9 43.98 142.52 76.57 147.69 76.57 147.69 13.45 131.54 13.45 131.54 44.45"/><path class="cls-2" d="M186,12.33,157.84,75.44h17.37l2.26-5.17h22.26L202,75.44h17.38L191.18,12.33Zm-2.82,45,5.44-14.37L194,57.31Z"/><polygon class="cls-2" points="261.06 44.54 234.67 12.33 229.5 12.33 229.5 75.44 245.66 75.44 245.66 49.52 258.43 64.45 263.6 64.45 276.46 49.42 276.46 75.44 292.62 75.44 292.62 12.33 287.45 12.33 261.06 44.54"/><polygon class="cls-2" points="324.93 50.08 344.09 50.08 344.09 36.56 324.93 36.56 324.93 28.01 351.79 28.01 351.79 13.45 308.78 13.45 308.78 75.44 352.92 75.44 352.92 60.88 324.93 60.88 324.93 50.08"/><path class="cls-2" d="M395.56,27.17q10.14,0,16.16,10.14L424,29a30.8,30.8,0,0,0-11.65-12.26,32.3,32.3,0,0,0-16.71-4.36q-14.1,0-23.81,9.25a30.31,30.31,0,0,0-9.72,22.87,30.31,30.31,0,0,0,9.67,22.91q9.68,9.21,23.76,9.21a32.51,32.51,0,0,0,16.81-4.37A30.73,30.73,0,0,0,424,59.94l-12.3-8.36q-6,10.16-16.16,10.15A16.52,16.52,0,0,1,383.35,57q-4.69-4.7-4.69-12.49T383.4,32A16.36,16.36,0,0,1,395.56,27.17Z"/><path class="cls-2" d="M466.76,61.73A16.52,16.52,0,0,1,454.55,57q-4.69-4.7-4.69-12.49T454.6,32a16.34,16.34,0,0,1,12.16-4.79q10.14,0,16.15,10.14L495.22,29a30.8,30.8,0,0,0-11.65-12.26,32.33,32.33,0,0,0-16.72-4.36,33.21,33.21,0,0,0-23.8,9.25,30.31,30.31,0,0,0-9.72,22.87A30.31,30.31,0,0,0,443,67.36q9.67,9.21,23.76,9.21a32.51,32.51,0,0,0,16.81-4.37,30.73,30.73,0,0,0,11.65-12.26l-12.31-8.36Q476.91,61.74,466.76,61.73Z"/><path class="cls-2" d="M60.44,37.23V75.44H76.59V28.24c-4.44,3.83-10.26,5.94-15.45,8.61C60.9,37,60.68,37.1,60.44,37.23Z"/><g class="cls-3"><polygon class="cls-4" points="53.34 25.93 66.56 35.85 53.34 35.85 53.34 25.93"/><polygon class="cls-4" points="53.34 25.51 67.12 35.85 66.56 35.85 53.34 25.93 53.34 25.51"/><polygon class="cls-5" points="53.34 25.09 67.69 35.85 67.12 35.85 53.34 25.51 53.34 25.09"/><polygon class="cls-6" points="53.34 24.66 68.25 35.85 67.69 35.85 53.34 25.09 53.34 24.66"/><polygon class="cls-7" points="53.34 24.24 68.82 35.85 68.25 35.85 53.34 24.66 53.34 24.24"/><polygon class="cls-8" points="53.34 23.82 69.38 35.85 68.82 35.85 53.34 24.24 53.34 23.82"/><polygon class="cls-9" points="53.34 23.39 69.95 35.85 69.38 35.85 53.34 23.82 53.34 23.39"/><polygon class="cls-10" points="53.34 22.97 70.51 35.85 69.95 35.85 53.34 23.39 53.34 22.97"/><polygon class="cls-11" points="53.34 22.54 71.08 35.85 70.51 35.85 53.34 22.97 53.34 22.54"/><polygon class="cls-12" points="53.34 22.12 71.64 35.85 71.08 35.85 53.34 22.54 53.34 22.12"/><polygon class="cls-13" points="53.34 21.7 72.21 35.85 71.64 35.85 53.34 22.12 53.34 21.7"/><polygon class="cls-14" points="53.34 21.27 72.56 35.69 72.44 35.85 72.21 35.85 53.34 21.7 53.34 21.27"/><polygon class="cls-15" points="53.34 20.85 72.77 35.42 72.56 35.69 53.34 21.27 53.34 20.85"/><polygon class="cls-16" points="53.34 20.43 72.97 35.15 72.77 35.42 53.34 20.85 53.34 20.43"/><polygon class="cls-17" points="53.34 20 73.17 34.88 72.97 35.15 53.34 20.43 53.34 20"/><polygon class="cls-18" points="53.34 19.58 73.38 34.6 73.17 34.88 53.34 20 53.34 19.58"/><polygon class="cls-19" points="53.34 19.15 73.58 34.33 73.38 34.6 53.34 19.58 53.34 19.15"/><polygon class="cls-20" points="53.34 18.73 73.78 34.06 73.58 34.33 53.34 19.15 53.34 18.73"/><polygon class="cls-21" points="53.34 18.31 73.98 33.79 73.78 34.06 53.34 18.73 53.34 18.31"/><polygon class="cls-21" points="53.34 17.88 74.19 33.52 73.98 33.79 53.34 18.31 53.34 17.88"/><polygon class="cls-22" points="53.34 17.46 74.39 33.25 74.19 33.52 53.34 17.88 53.34 17.46"/><polygon class="cls-23" points="53.34 17.04 74.59 32.98 74.39 33.25 53.34 17.46 53.34 17.04"/><polygon class="cls-24" points="53.34 16.61 74.8 32.71 74.59 32.98 53.34 17.04 53.34 16.61"/><polygon class="cls-25" points="53.34 16.19 75 32.44 74.8 32.71 53.34 16.61 53.34 16.19"/><polygon class="cls-26" points="53.34 15.76 75.2 32.16 75 32.44 53.34 16.19 53.34 15.76"/><polygon class="cls-27" points="53.34 15.4 53.37 15.36 75.41 31.89 75.2 32.16 53.34 15.76 53.34 15.4"/><rect class="cls-28" x="64.32" y="9.71" width="0.34" height="27.55" transform="matrix(0.6, -0.8, 0.8, 0.6, 7, 60.99)"/><rect class="cls-29" x="64.52" y="9.44" width="0.34" height="27.55" transform="translate(7.3 61.04) rotate(-53.13)"/><rect class="cls-30" x="64.73" y="9.17" width="0.34" height="27.55" transform="translate(7.6 61.1) rotate(-53.13)"/><rect class="cls-31" x="64.93" y="8.9" width="0.34" height="27.55" transform="translate(7.9 61.15) rotate(-53.13)"/><rect class="cls-31" x="65.13" y="8.63" width="0.34" height="27.55" transform="translate(8.2 61.2) rotate(-53.13)"/><rect class="cls-32" x="65.34" y="8.36" width="0.34" height="27.55" transform="translate(8.49 61.26) rotate(-53.13)"/><rect class="cls-33" x="65.54" y="8.09" width="0.34" height="27.55" transform="translate(8.79 61.31) rotate(-53.13)"/><rect class="cls-34" x="65.74" y="7.82" width="0.34" height="27.55" transform="translate(9.08 61.36) rotate(-53.12)"/><rect class="cls-34" x="65.95" y="7.54" width="0.34" height="27.55" transform="translate(9.39 61.42) rotate(-53.13)"/><rect class="cls-35" x="66.15" y="7.27" width="0.34" height="27.55" transform="translate(9.7 61.49) rotate(-53.14)"/><rect class="cls-35" x="66.35" y="7" width="0.34" height="27.55" transform="translate(9.99 61.53) rotate(-53.13)"/><rect class="cls-36" x="66.56" y="6.73" width="0.34" height="27.55" transform="translate(10.28 61.58) rotate(-53.13)"/><rect class="cls-37" x="66.76" y="6.46" width="0.34" height="27.55" transform="translate(10.58 61.64) rotate(-53.13)"/><rect class="cls-38" x="66.96" y="6.19" width="0.34" height="27.55" transform="translate(10.88 61.69) rotate(-53.13)"/><rect class="cls-39" x="67.17" y="5.92" width="0.34" height="27.55" transform="translate(11.17 61.74) rotate(-53.12)"/><rect class="cls-40" x="67.37" y="5.65" width="0.34" height="27.55" transform="translate(11.48 61.8) rotate(-53.13)"/><rect class="cls-41" x="67.57" y="5.38" width="0.34" height="27.55" transform="translate(11.78 61.86) rotate(-53.13)"/><rect class="cls-42" x="67.78" y="5.1" width="0.34" height="27.55" transform="translate(12.07 61.91) rotate(-53.13)"/><rect class="cls-43" x="67.98" y="4.83" width="0.34" height="27.55" transform="translate(12.37 61.96) rotate(-53.13)"/><rect class="cls-44" x="68.18" y="4.56" width="0.34" height="27.55" transform="translate(12.68 62.03) rotate(-53.14)"/><rect class="cls-45" x="68.39" y="4.29" width="0.34" height="27.55" transform="translate(12.97 62.07) rotate(-53.13)"/><rect class="cls-46" x="68.59" y="4.02" width="0.34" height="27.55" transform="translate(13.26 62.12) rotate(-53.12)"/><rect class="cls-47" x="68.79" y="3.75" width="0.34" height="27.55" transform="translate(13.57 62.18) rotate(-53.13)"/><rect class="cls-48" x="69" y="3.48" width="0.34" height="27.55" transform="translate(13.86 62.23) rotate(-53.13)"/><rect class="cls-49" x="69.2" y="3.21" width="0.34" height="27.55" transform="translate(14.16 62.29) rotate(-53.13)"/><rect class="cls-50" x="69.4" y="2.93" width="0.34" height="27.55" transform="translate(14.46 62.34) rotate(-53.13)"/><rect class="cls-51" x="69.61" y="2.66" width="0.34" height="27.55" transform="translate(14.76 62.4) rotate(-53.13)"/><rect class="cls-52" x="69.81" y="2.39" width="0.34" height="27.55" transform="translate(15.06 62.45) rotate(-53.13)"/><rect class="cls-53" x="70.01" y="2.12" width="0.34" height="27.55" transform="translate(15.36 62.51) rotate(-53.13)"/><rect class="cls-54" x="70.22" y="1.85" width="0.34" height="27.55" transform="translate(15.66 62.56) rotate(-53.13)"/><rect class="cls-55" x="70.42" y="1.58" width="0.34" height="27.55" transform="translate(15.95 62.61) rotate(-53.13)"/><rect class="cls-56" x="70.62" y="1.31" width="0.34" height="27.55" transform="translate(16.25 62.67) rotate(-53.13)"/><rect class="cls-57" x="70.83" y="1.04" width="0.34" height="27.55" transform="translate(16.55 62.72) rotate(-53.13)"/><rect class="cls-58" x="71.03" y="0.77" width="0.34" height="27.55" transform="translate(16.85 62.78) rotate(-53.13)"/><rect class="cls-59" x="71.23" y="0.49" width="0.34" height="27.55" transform="translate(17.14 62.83) rotate(-53.13)"/><rect class="cls-60" x="71.44" y="0.22" width="0.34" height="27.55" transform="translate(17.44 62.89) rotate(-53.13)"/><rect class="cls-61" x="71.64" y="-0.05" width="0.34" height="27.55" transform="translate(17.73 62.93) rotate(-53.12)"/><rect class="cls-62" x="71.84" y="-0.32" width="0.34" height="27.55" transform="translate(18.04 62.99) rotate(-53.13)"/><rect class="cls-63" x="72.05" y="-0.59" width="0.34" height="27.55" transform="translate(18.34 63.05) rotate(-53.13)"/><rect class="cls-64" x="72.25" y="-0.86" width="0.34" height="27.55" transform="translate(18.65 63.12) rotate(-53.14)"/><rect class="cls-65" x="72.45" y="-1.13" width="0.34" height="27.55" transform="translate(18.93 63.16) rotate(-53.13)"/><polygon class="cls-66" points="61.7 4.24 61.91 3.97 83.84 20.42 83.84 20.65 83.75 20.77 61.7 4.24"/><polygon class="cls-67" points="61.91 3.97 62.11 3.7 83.84 20 83.84 20.42 61.91 3.97"/><polygon class="cls-68" points="62.11 3.7 62.31 3.43 83.84 19.57 83.84 20 62.11 3.7"/><polygon class="cls-69" points="62.31 3.43 62.52 3.16 83.84 19.15 83.84 19.57 62.31 3.43"/><polygon class="cls-70" points="62.52 3.16 62.72 2.89 83.84 18.73 83.84 19.15 62.52 3.16"/><polygon class="cls-71" points="62.72 2.89 62.92 2.62 83.84 18.3 83.84 18.73 62.72 2.89"/><polygon class="cls-72" points="62.92 2.62 63.13 2.34 83.84 17.88 83.84 18.3 62.92 2.62"/><polygon class="cls-73" points="63.13 2.34 63.33 2.07 83.84 17.46 83.84 17.88 63.13 2.34"/><polygon class="cls-74" points="63.33 2.07 63.53 1.8 83.84 17.03 83.84 17.46 63.33 2.07"/><polygon class="cls-74" points="63.53 1.8 63.74 1.53 83.84 16.61 83.84 17.03 63.53 1.8"/><polygon class="cls-75" points="63.74 1.53 63.94 1.26 83.84 16.18 83.84 16.61 63.74 1.53"/><polygon class="cls-76" points="63.94 1.26 64.14 0.99 83.84 15.76 83.84 16.18 63.94 1.26"/><polygon class="cls-77" points="64.14 0.99 64.35 0.72 83.84 15.34 83.84 15.76 64.14 0.99"/><polygon class="cls-78" points="64.35 0.72 64.55 0.45 83.84 14.91 83.84 15.34 64.35 0.72"/><polygon class="cls-79" points="64.55 0.45 64.75 0.17 83.84 14.49 83.84 14.91 64.55 0.45"/><polygon class="cls-79" points="64.75 0.17 64.89 0 65.09 0 83.84 14.07 83.84 14.49 64.75 0.17"/><polygon class="cls-80" points="65.65 0 83.84 13.64 83.84 14.07 65.09 0 65.65 0"/><polygon class="cls-80" points="66.22 0 83.84 13.22 83.84 13.64 65.65 0 66.22 0"/><polygon class="cls-81" points="66.78 0 83.84 12.79 83.84 13.22 66.22 0 66.78 0"/><polygon class="cls-82" points="67.35 0 83.84 12.37 83.84 12.79 66.78 0 67.35 0"/><polygon class="cls-83" points="67.91 0 83.84 11.95 83.84 12.37 67.35 0 67.91 0"/><polygon class="cls-84" points="68.48 0 83.84 11.52 83.84 11.95 67.91 0 68.48 0"/><polygon class="cls-85" points="69.04 0 83.84 11.1 83.84 11.52 68.48 0 69.04 0"/><polygon class="cls-85" points="69.61 0 83.84 10.68 83.84 11.1 69.04 0 69.61 0"/><polygon class="cls-86" points="70.17 0 83.84 10.25 83.84 10.68 69.61 0 70.17 0"/><polygon class="cls-86" points="70.74 0 83.84 9.83 83.84 10.25 70.17 0 70.74 0"/><polygon class="cls-87" points="71.3 0 83.84 9.41 83.84 9.83 70.74 0 71.3 0"/><polygon class="cls-87" points="71.87 0 83.84 8.98 83.84 9.41 71.3 0 71.87 0"/><polygon class="cls-88" points="72.43 0 83.84 8.56 83.84 8.98 71.87 0 72.43 0"/><polygon class="cls-89" points="73 0 83.84 8.13 83.84 8.56 72.43 0 73 0"/><polygon class="cls-90" points="73.56 0 83.84 7.71 83.84 8.13 73 0 73.56 0"/><polygon class="cls-91" points="74.13 0 83.84 7.29 83.84 7.71 73.56 0 74.13 0"/><polygon class="cls-91" points="74.69 0 83.84 6.86 83.84 7.29 74.13 0 74.69 0"/><polygon class="cls-92" points="75.26 0 83.84 6.44 83.84 6.86 74.69 0 75.26 0"/><polygon class="cls-93" points="75.82 0 83.84 6.02 83.84 6.44 75.26 0 75.82 0"/><polygon class="cls-94" points="76.39 0 83.84 5.59 83.84 6.02 75.82 0 76.39 0"/><polygon class="cls-95" points="76.95 0 83.84 5.17 83.84 5.59 76.39 0 76.95 0"/><polygon class="cls-96" points="77.52 0 83.84 4.75 83.84 5.17 76.95 0 77.52 0"/><polygon class="cls-97" points="78.08 0 83.84 4.32 83.84 4.75 77.52 0 78.08 0"/><polygon class="cls-97" points="78.65 0 83.84 3.9 83.84 4.32 78.08 0 78.65 0"/><polygon class="cls-97" points="79.21 0 83.84 3.47 83.84 3.9 78.65 0 79.21 0"/><polygon class="cls-98" points="79.78 0 83.84 3.05 83.84 3.47 79.21 0 79.78 0"/><polygon class="cls-98" points="80.34 0 83.84 2.63 83.84 3.05 79.78 0 80.34 0"/><polygon class="cls-99" points="80.91 0 83.84 2.2 83.84 2.63 80.34 0 80.91 0"/><polygon class="cls-98" points="81.47 0 83.84 1.78 83.84 2.2 80.91 0 81.47 0"/><polygon class="cls-99" points="82.04 0 83.84 1.35 83.84 1.78 81.47 0 82.04 0"/><polygon class="cls-100" points="82.6 0 83.84 0.93 83.84 1.35 82.04 0 82.6 0"/><polygon class="cls-100" points="83.17 0 83.84 0.51 83.84 0.93 82.6 0 83.17 0"/><polygon class="cls-101" points="83.73 0 83.84 0.08 83.84 0.51 83.17 0 83.73 0"/><polygon class="cls-102" points="83.84 0.08 83.73 0 83.84 0 83.84 0.08"/></g><path class="cls-103" d="M10.92,104.9c-.1-2.37-2.07-3.12-3.8-3.12-1.31,0-3.51.37-3.51,2.7,0,1.3.92,1.73,1.82,1.94l4.38,1c2,.47,3.49,1.66,3.49,4.1,0,3.64-3.38,4.64-6,4.64-2.84,0-4-.86-4.64-1.48a4.72,4.72,0,0,1-1.56-3.89H3c0,2.78,2.26,3.6,4.23,3.6,1.49,0,4-.39,4-2.59,0-1.6-.75-2.12-3.27-2.72l-3.15-.72a3.7,3.7,0,0,1-3.27-3.62c0-2.39,1.56-4.74,5.28-4.74,5.37,0,5.9,3.21,6,4.89Z"/><path class="cls-103" d="M16.21,102.55v-2.13h1.88v2.13Zm1.88,13.21H16.21V104.58h1.88Z"/><path class="cls-103" d="M27.73,107.77c0-.71-.28-1.88-2.65-1.88-.58,0-2.23.19-2.23,1.58,0,.92.58,1.13,2,1.5l1.88.47c2.33.57,3.14,1.43,3.14,3,0,2.3-1.9,3.69-4.43,3.69-4.42,0-4.74-2.56-4.81-3.91h1.82c.07.88.32,2.29,3,2.29,1.35,0,2.57-.54,2.57-1.77,0-.9-.62-1.2-2.23-1.61l-2.18-.53c-1.56-.39-2.58-1.18-2.58-2.72,0-2.46,2-3.57,4.23-3.57,4,0,4.28,2.95,4.28,3.51Z"/><path class="cls-103" d="M34.85,106.14v7.27c0,.88.75.88,1.13.88h.67v1.47c-.69.07-1.22.15-1.42.15-1.85,0-2.26-1-2.26-2.39v-7.38H31.45v-1.56H33v-3.12h1.88v3.12h1.8v1.56Z"/><path class="cls-103" d="M48,112.26a4.82,4.82,0,0,1-2,3,4.74,4.74,0,0,1-3,.77c-3.15,0-5-2.37-5-5.6,0-3.46,1.67-6.22,5.37-6.22,3.23,0,4.81,2.57,4.81,6.52H40c0,2.33,1.09,3.68,3.25,3.68a2.85,2.85,0,0,0,2.89-2.2Zm-1.8-3c-.1-1.74-.83-3.34-3.12-3.34a3.28,3.28,0,0,0-3.1,3.34Z"/><path class="cls-103" d="M50.89,104.58h1.77v1.59h0a3.93,3.93,0,0,1,3.38-1.91,3,3,0,0,1,3,1.82,4.09,4.09,0,0,1,3.42-1.82c1.2,0,3.47.62,3.47,3.77v7.73H64.05v-7.22c0-1.54-.47-2.59-2.07-2.59a2.84,2.84,0,0,0-2.63,3v6.82H57.47V108c0-1-.36-2.08-1.75-2.08-1.07,0-2.95.69-2.95,3.72v6.09H50.89Z"/><path class="cls-103" d="M69.1,108c.09-2.67,1.86-3.72,4.62-3.72.9,0,4.15.26,4.15,3.12v6.44c0,.47.23.66.62.66a3.9,3.9,0,0,0,.62-.08v1.36a3.34,3.34,0,0,1-1,.22c-1.67,0-1.92-.86-2-1.71a5.07,5.07,0,0,1-4,1.81,3.21,3.21,0,0,1-3.5-3.22c0-.94.27-3.12,3.4-3.51L75,109c.45,0,1-.22,1-1.33s-.86-1.82-2.63-1.82A2.23,2.23,0,0,0,70.83,108ZM76,110.06c-.3.23-.77.4-3.1.7-.92.13-2.4.41-2.4,1.82,0,1.22.62,1.94,2,1.94,1.76,0,3.47-1.13,3.47-2.63Z"/><path class="cls-103" d="M98.35,100.42h2v15.34H98l-7.81-12.4h0v12.4h-2V100.42h2.46l7.68,12.39h0Z"/><path class="cls-103" d="M103.78,108c.09-2.67,1.86-3.72,4.62-3.72.9,0,4.14.26,4.14,3.12v6.44c0,.47.24.66.63.66a3.9,3.9,0,0,0,.62-.08v1.36a3.41,3.41,0,0,1-1,.22c-1.67,0-1.93-.86-2-1.71a5.09,5.09,0,0,1-4,1.81,3.22,3.22,0,0,1-3.51-3.22c0-.94.28-3.12,3.4-3.51l3.1-.38c.45,0,1-.22,1-1.33s-.86-1.82-2.63-1.82a2.23,2.23,0,0,0-2.57,2.16Zm6.88,2.08c-.29.23-.77.4-3.1.7-.91.13-2.39.41-2.39,1.82,0,1.22.62,1.94,2,1.94,1.75,0,3.46-1.13,3.46-2.63Z"/><path class="cls-103" d="M123.19,108.35a2.49,2.49,0,0,0-2.65-2.4c-2.33,0-3.08,2.22-3.08,4.21s.47,4.3,3.06,4.3c1.26,0,2.35-.94,2.67-2.65H125a4.41,4.41,0,0,1-4.55,4.27c-3.15,0-5-2.37-5-5.6,0-3.46,1.67-6.22,5.37-6.22,2.93,0,4,2.14,4.19,4.09Z"/><path class="cls-103" d="M127.41,102.55v-2.13h1.88v2.13Zm1.88,13.21h-1.88V104.58h1.88Z"/><path class="cls-103" d="M137.13,104.26c3.57,0,5.2,3,5.2,5.9s-1.63,5.9-5.2,5.9-5.19-3-5.19-5.9S133.56,104.26,137.13,104.26Zm0,10.18c2.7,0,3.25-2.78,3.25-4.28s-.55-4.27-3.25-4.27-3.25,2.78-3.25,4.27S134.44,114.44,137.13,114.44Z"/><path class="cls-103" d="M154,115.76h-1.88v-6.88c0-1.95-.55-2.93-2.39-2.93-1.07,0-3,.69-3,3.72v6.09h-1.88V104.58h1.77v1.59h0a4.07,4.07,0,0,1,3.38-1.91c1.73,0,3.91.71,3.91,3.89Z"/><path class="cls-103" d="M157.23,108c.09-2.67,1.86-3.72,4.62-3.72.9,0,4.15.26,4.15,3.12v6.44c0,.47.23.66.62.66a3.9,3.9,0,0,0,.62-.08v1.36a3.34,3.34,0,0,1-1,.22c-1.67,0-1.92-.86-2-1.71a5.07,5.07,0,0,1-4,1.81,3.21,3.21,0,0,1-3.5-3.22c0-.94.27-3.12,3.4-3.51l3.09-.38c.45,0,1-.22,1-1.33s-.86-1.82-2.63-1.82A2.23,2.23,0,0,0,159,108Zm6.89,2.08c-.3.23-.77.4-3.1.7-.92.13-2.4.41-2.4,1.82,0,1.22.62,1.94,2,1.94,1.76,0,3.47-1.13,3.47-2.63Z"/><path class="cls-103" d="M171.58,115.76H169.7V100.42h1.88Z"/><path class="cls-103" d="M190.56,115.76h-1.77v-1.54h0a3.38,3.38,0,0,1-3.19,1.86c-3.81,0-4.92-3.57-4.92-6.24,0-3.14,1.69-5.58,4.66-5.58a3.78,3.78,0,0,1,3.34,1.91l0-.15v-5.6h1.88Zm-5-1.3c1.2,0,3.06-.79,3.06-3.76,0-1.82-.3-4.75-3-4.75-2.91,0-3.06,2.76-3.06,4.19C182.59,112.6,183.55,114.46,185.6,114.46Z"/><path class="cls-103" d="M203.13,112.26a4.78,4.78,0,0,1-2,3,4.72,4.72,0,0,1-3,.77c-3.14,0-5-2.37-5-5.6,0-3.46,1.66-6.22,5.36-6.22,3.23,0,4.81,2.57,4.81,6.52h-8.16c0,2.33,1.09,3.68,3.25,3.68a2.83,2.83,0,0,0,2.88-2.2Zm-1.79-3c-.11-1.74-.84-3.34-3.12-3.34a3.28,3.28,0,0,0-3.1,3.34Z"/><path class="cls-103" d="M225.28,115.76V106.7c0-.45.05-2.39.05-3.83h-.05L221,115.76h-2.05l-4.32-12.87h0c0,1.42,0,3.36,0,3.81v9.06h-2V100.42h3l4.38,13h0l4.36-13h2.95v15.34Z"/><path class="cls-103" d="M240.19,112.26a4.87,4.87,0,0,1-2,3,4.78,4.78,0,0,1-3,.77c-3.14,0-5-2.37-5-5.6,0-3.46,1.67-6.22,5.37-6.22,3.22,0,4.81,2.57,4.81,6.52h-8.17c0,2.33,1.09,3.68,3.25,3.68a2.83,2.83,0,0,0,2.88-2.2Zm-1.8-3c-.11-1.74-.83-3.34-3.12-3.34a3.28,3.28,0,0,0-3.1,3.34Zm-2.65-6.2h-1.43l1.9-3h2.31Z"/><path class="cls-103" d="M245.36,106.14v7.27c0,.88.75.88,1.13.88h.67v1.47c-.69.07-1.22.15-1.41.15-1.86,0-2.27-1-2.27-2.39v-7.38H242v-1.56h1.52v-3.12h1.88v3.12h1.8v1.56Z"/><path class="cls-103" d="M251.6,115.76h-1.88V104.58h1.78v1.86h0a3.64,3.64,0,0,1,3.14-2.18,1.3,1.3,0,0,1,.49.07v1.94h-.7a2.84,2.84,0,0,0-2.87,3Z"/><path class="cls-103" d="M257.42,102.55v-2.13h1.88v2.13Zm1.88,13.21h-1.88V104.58h1.88Z"/><path class="cls-103" d="M269.58,108.35a2.48,2.48,0,0,0-2.65-2.4c-2.33,0-3.08,2.22-3.08,4.21s.48,4.3,3.06,4.3c1.26,0,2.35-.94,2.67-2.65h1.82a4.41,4.41,0,0,1-4.55,4.27c-3.14,0-5-2.37-5-5.6,0-3.46,1.66-6.22,5.36-6.22,2.93,0,4,2.14,4.19,4.09Z"/><path class="cls-103" d="M273.69,108c.09-2.67,1.86-3.72,4.62-3.72.9,0,4.14.26,4.14,3.12v6.44c0,.47.24.66.62.66a3.64,3.64,0,0,0,.62-.08v1.36a3.27,3.27,0,0,1-1,.22c-1.67,0-1.93-.86-2-1.71a5.09,5.09,0,0,1-4,1.81,3.22,3.22,0,0,1-3.51-3.22c0-.94.28-3.12,3.4-3.51l3.1-.38c.45,0,1-.22,1-1.33s-.86-1.82-2.63-1.82a2.23,2.23,0,0,0-2.57,2.16Zm6.88,2.08c-.3.23-.77.4-3.1.7-.92.13-2.39.41-2.39,1.82,0,1.22.62,1.94,2,1.94,1.75,0,3.46-1.13,3.46-2.63Z"/><path class="cls-103" d="M301.8,115.76H300v-1.54h0a3.38,3.38,0,0,1-3.19,1.86c-3.8,0-4.92-3.57-4.92-6.24,0-3.14,1.69-5.58,4.66-5.58a3.77,3.77,0,0,1,3.34,1.91l0-.15v-5.6h1.88Zm-5-1.3c1.2,0,3.06-.79,3.06-3.76,0-1.82-.3-4.75-3-4.75-2.91,0-3.06,2.76-3.06,4.19C293.83,112.6,294.79,114.46,296.84,114.46Z"/><path class="cls-103" d="M314.38,112.26a4.87,4.87,0,0,1-2,3,4.78,4.78,0,0,1-3,.77c-3.14,0-5-2.37-5-5.6,0-3.46,1.67-6.22,5.36-6.22,3.23,0,4.82,2.57,4.82,6.52h-8.17c0,2.33,1.09,3.68,3.25,3.68a2.83,2.83,0,0,0,2.88-2.2Zm-1.8-3c-.11-1.74-.83-3.34-3.12-3.34a3.28,3.28,0,0,0-3.1,3.34Z"/><path class="cls-4" d="M334.7,105a4,4,0,0,0-4.31-3.19c-2.79,0-5,2.06-5,6.11,0,3.62,1.29,6.41,5.11,6.41,1.35,0,3.68-.65,4.39-4.23h2c-.86,5.81-5.58,6.07-6.74,6.07-3.49,0-6.92-2.27-6.92-8.19,0-4.74,2.7-8,7.18-8,4,0,6,2.47,6.33,5Z"/><path class="cls-4" d="M339,108c.09-2.68,1.87-3.73,4.63-3.73.9,0,4.16.26,4.16,3.13v6.45c0,.47.24.67.62.67a3.86,3.86,0,0,0,.62-.09v1.37a3.34,3.34,0,0,1-1,.22c-1.67,0-1.92-.86-2-1.72a5.07,5.07,0,0,1-4,1.83,3.24,3.24,0,0,1-3.52-3.24c0-.95.28-3.13,3.41-3.52L345,109c.45,0,1-.22,1-1.33s-.86-1.82-2.64-1.82a2.23,2.23,0,0,0-2.57,2.16Zm6.9,2.08c-.3.24-.77.41-3.1.71-.93.13-2.41.4-2.41,1.82a1.78,1.78,0,0,0,2,2c1.76,0,3.47-1.14,3.47-2.64Z"/><path class="cls-4" d="M351.47,104.55h1.78v1.59h0a3.94,3.94,0,0,1,3.39-1.91,3,3,0,0,1,3,1.82,4.1,4.1,0,0,1,3.43-1.82c1.2,0,3.47.62,3.47,3.77v7.76h-1.89v-7.24c0-1.55-.47-2.6-2.08-2.6a2.84,2.84,0,0,0-2.63,3v6.84h-1.89V108c0-.94-.36-2.08-1.76-2.08-1.07,0-3,.69-3,3.73v6.11h-1.88Z"/><path class="cls-4" d="M369.65,115.76V100.37h1.88V106h.05a3.81,3.81,0,0,1,3.23-1.74c3,0,4.68,2.44,4.68,5.6,0,2.68-1.12,6.26-4.93,6.26a3.36,3.36,0,0,1-3.09-1.72h0v1.39Zm4.82-9.84c-2.72,0-3,2.94-3,4.76,0,3,1.86,3.78,3.06,3.78,2.06,0,3-1.87,3-4.33C377.54,108.69,377.39,105.92,374.47,105.92Z"/><path class="cls-4" d="M382.23,102.51v-2.14h1.89v2.14Zm1.89,13.25h-1.89V104.55h1.89Z"/><path class="cls-4" d="M392,104.23c3.58,0,5.21,3,5.21,5.92s-1.63,5.91-5.21,5.91-5.21-3-5.21-5.91S388.41,104.23,392,104.23Zm0,10.2c2.7,0,3.25-2.78,3.25-4.28s-.55-4.29-3.25-4.29-3.26,2.79-3.26,4.29S389.28,114.43,392,114.43Z"/><path class="cls-104" d="M417.28,105a4,4,0,0,0-4.31-3.19c-2.78,0-5,2.06-5,6.11,0,3.62,1.28,6.41,5.1,6.41,1.35,0,3.69-.65,4.39-4.23h2c-.86,5.81-5.58,6.07-6.73,6.07-3.5,0-6.93-2.27-6.93-8.19,0-4.74,2.7-8,7.18-8,4,0,6,2.47,6.33,5Z"/><path class="cls-104" d="M424.12,115.76h-1.88V100.37h1.88Z"/><path class="cls-104" d="M427.47,102.51v-2.14h1.88v2.14Zm1.88,13.25h-1.88V104.55h1.88Z"/><path class="cls-104" d="M432.65,104.55h1.78v1.59h.05a3.92,3.92,0,0,1,3.38-1.91,3,3,0,0,1,3,1.82c1-1,1.7-1.82,3.43-1.82,1.2,0,3.48.62,3.48,3.77v7.76h-1.89v-7.24c0-1.55-.47-2.6-2.08-2.6a2.85,2.85,0,0,0-2.64,3v6.84h-1.88V108c0-.94-.37-2.08-1.76-2.08-1.07,0-3,.69-3,3.73v6.11h-1.89Z"/><path class="cls-104" d="M450.92,108c.08-2.68,1.86-3.73,4.63-3.73.9,0,4.16.26,4.16,3.13v6.45c0,.47.23.67.62.67a3.86,3.86,0,0,0,.62-.09v1.37a3.34,3.34,0,0,1-1,.22c-1.67,0-1.93-.86-2-1.72a5.09,5.09,0,0,1-4.05,1.83,3.24,3.24,0,0,1-3.52-3.24c0-.95.28-3.13,3.41-3.52l3.11-.38c.45,0,1-.22,1-1.33s-.86-1.82-2.64-1.82c-2.15,0-2.45,1.3-2.57,2.16Zm6.9,2.08c-.3.24-.77.41-3.11.71-.92.13-2.4.4-2.4,1.82a1.77,1.77,0,0,0,2,2c1.76,0,3.47-1.14,3.47-2.64Zm-1.78-7h-1.43l1.9-3h2.32Z"/><path class="cls-104" d="M465.69,106.12v7.29c0,.87.75.87,1.14.87h.66v1.48c-.68.07-1.22.15-1.41.15-1.87,0-2.28-1-2.28-2.4v-7.39h-1.52v-1.57h1.52v-3.13h1.89v3.13h1.8v1.57Z"/><path class="cls-104" d="M469.85,102.51v-2.14h1.89v2.14Zm1.89,13.25h-1.89V104.55h1.89Z"/><path class="cls-104" d="M482.05,108.32a2.5,2.5,0,0,0-2.66-2.4c-2.34,0-3.09,2.23-3.09,4.23s.47,4.31,3.07,4.31c1.26,0,2.35-.95,2.68-2.66h1.82a4.44,4.44,0,0,1-4.57,4.29c-3.15,0-5-2.38-5-5.62,0-3.47,1.67-6.24,5.38-6.24,2.93,0,4.05,2.14,4.2,4.09Z"/><path class="cls-104" d="M490.79,104.23c3.58,0,5.21,3,5.21,5.92s-1.63,5.91-5.21,5.91-5.21-3-5.21-5.91S487.21,104.23,490.79,104.23Zm0,10.2c2.71,0,3.26-2.78,3.26-4.28s-.55-4.29-3.26-4.29-3.25,2.79-3.25,4.29S488.09,114.43,490.79,114.43Z"/><g class="cls-105"><polygon class="cls-4" points="144.22 88.4 144.21 91.4 0 91.4 0 88.4 144.22 88.4"/><polygon class="cls-4" points="146.24 88.4 146.22 91.4 144.21 91.4 144.22 88.4 146.24 88.4"/><polygon class="cls-5" points="148.25 88.4 148.24 91.4 146.22 91.4 146.24 88.4 148.25 88.4"/><polygon class="cls-6" points="150.27 88.4 150.25 91.4 148.24 91.4 148.25 88.4 150.27 88.4"/><polygon class="cls-7" points="152.28 88.4 152.27 91.4 150.25 91.4 150.27 88.4 152.28 88.4"/><polygon class="cls-8" points="154.3 88.4 154.28 91.4 152.27 91.4 152.28 88.4 154.3 88.4"/><polygon class="cls-9" points="156.31 88.4 156.3 91.4 154.28 91.4 154.3 88.4 156.31 88.4"/><polygon class="cls-10" points="158.33 88.4 158.31 91.4 156.3 91.4 156.31 88.4 158.33 88.4"/><polygon class="cls-11" points="160.34 88.4 160.33 91.4 158.31 91.4 158.33 88.4 160.34 88.4"/><polygon class="cls-12" points="162.36 88.4 162.34 91.4 160.33 91.4 160.34 88.4 162.36 88.4"/><polygon class="cls-13" points="164.38 88.4 164.36 91.4 162.34 91.4 162.36 88.4 164.38 88.4"/><polygon class="cls-14" points="166.39 88.4 166.37 91.4 164.36 91.4 164.38 88.4 166.39 88.4"/><polygon class="cls-15" points="168.41 88.4 168.39 91.4 166.37 91.4 166.39 88.4 168.41 88.4"/><polygon class="cls-16" points="170.42 88.4 170.4 91.4 168.39 91.4 168.41 88.4 170.42 88.4"/><polygon class="cls-17" points="172.44 88.4 172.42 91.4 170.4 91.4 170.42 88.4 172.44 88.4"/><polygon class="cls-18" points="174.45 88.4 174.43 91.4 172.42 91.4 172.44 88.4 174.45 88.4"/><polygon class="cls-19" points="176.47 88.4 176.45 91.4 174.43 91.4 174.45 88.4 176.47 88.4"/><polygon class="cls-20" points="178.48 88.4 178.46 91.4 176.45 91.4 176.47 88.4 178.48 88.4"/><polygon class="cls-21" points="180.5 88.4 180.48 91.4 178.46 91.4 178.48 88.4 180.5 88.4"/><polygon class="cls-21" points="182.51 88.4 182.49 91.4 180.48 91.4 180.5 88.4 182.51 88.4"/><polygon class="cls-22" points="184.53 88.4 184.51 91.4 182.49 91.4 182.51 88.4 184.53 88.4"/><polygon class="cls-23" points="186.54 88.4 186.52 91.4 184.51 91.4 184.53 88.4 186.54 88.4"/><polygon class="cls-24" points="188.56 88.4 188.54 91.4 186.52 91.4 186.54 88.4 188.56 88.4"/><polygon class="cls-25" points="190.57 88.4 190.56 91.4 188.54 91.4 188.56 88.4 190.57 88.4"/><polygon class="cls-26" points="192.59 88.4 192.57 91.4 190.56 91.4 190.57 88.4 192.59 88.4"/><polygon class="cls-27" points="194.6 88.4 194.59 91.4 192.57 91.4 192.59 88.4 194.6 88.4"/><polygon class="cls-28" points="196.62 88.4 196.6 91.4 194.59 91.4 194.6 88.4 196.62 88.4"/><polygon class="cls-29" points="198.63 88.4 198.62 91.4 196.6 91.4 196.62 88.4 198.63 88.4"/><polygon class="cls-30" points="200.65 88.4 200.63 91.4 198.62 91.4 198.63 88.4 200.65 88.4"/><polygon class="cls-31" points="202.66 88.4 202.65 91.4 200.63 91.4 200.65 88.4 202.66 88.4"/><polygon class="cls-31" points="204.68 88.4 204.66 91.4 202.65 91.4 202.66 88.4 204.68 88.4"/><polygon class="cls-32" points="206.69 88.4 206.68 91.4 204.66 91.4 204.68 88.4 206.69 88.4"/><polygon class="cls-33" points="208.71 88.4 208.69 91.4 206.68 91.4 206.69 88.4 208.71 88.4"/><polygon class="cls-34" points="210.72 88.4 210.71 91.4 208.69 91.4 208.71 88.4 210.72 88.4"/><polygon class="cls-34" points="212.74 88.4 212.72 91.4 210.71 91.4 210.72 88.4 212.74 88.4"/><polygon class="cls-35" points="214.75 88.4 214.74 91.4 212.72 91.4 212.74 88.4 214.75 88.4"/><polygon class="cls-35" points="216.77 88.4 216.75 91.4 214.74 91.4 214.75 88.4 216.77 88.4"/><polygon class="cls-36" points="218.78 88.4 218.77 91.4 216.75 91.4 216.77 88.4 218.78 88.4"/><polygon class="cls-37" points="220.8 88.4 220.78 91.4 218.77 91.4 218.78 88.4 220.8 88.4"/><polygon class="cls-38" points="222.81 88.4 222.8 91.4 220.78 91.4 220.8 88.4 222.81 88.4"/><polygon class="cls-39" points="224.83 88.4 224.81 91.4 222.8 91.4 222.81 88.4 224.83 88.4"/><polygon class="cls-40" points="226.84 88.4 226.83 91.4 224.81 91.4 224.83 88.4 226.84 88.4"/><polygon class="cls-41" points="228.86 88.4 228.84 91.4 226.83 91.4 226.84 88.4 228.86 88.4"/><polygon class="cls-42" points="230.87 88.4 230.86 91.4 228.84 91.4 228.86 88.4 230.87 88.4"/><polygon class="cls-43" points="232.89 88.4 232.87 91.4 230.86 91.4 230.87 88.4 232.89 88.4"/><polygon class="cls-44" points="234.9 88.4 234.89 91.4 232.87 91.4 232.89 88.4 234.9 88.4"/><polygon class="cls-45" points="236.92 88.4 236.9 91.4 234.89 91.4 234.9 88.4 236.92 88.4"/><polygon class="cls-46" points="238.94 88.4 238.92 91.4 236.9 91.4 236.92 88.4 238.94 88.4"/><polygon class="cls-47" points="240.95 88.4 240.93 91.4 238.92 91.4 238.94 88.4 240.95 88.4"/><polygon class="cls-48" points="242.97 88.4 242.95 91.4 240.93 91.4 240.95 88.4 242.97 88.4"/><polygon class="cls-49" points="244.98 88.4 244.96 91.4 242.95 91.4 242.97 88.4 244.98 88.4"/><polygon class="cls-50" points="247 88.4 246.98 91.4 244.96 91.4 244.98 88.4 247 88.4"/><polygon class="cls-51" points="249.01 88.4 248.99 91.4 246.98 91.4 247 88.4 249.01 88.4"/><polygon class="cls-52" points="251.03 88.4 251.01 91.4 248.99 91.4 249.01 88.4 251.03 88.4"/><polygon class="cls-53" points="253.04 88.4 253.02 91.4 251.01 91.4 251.03 88.4 253.04 88.4"/><polygon class="cls-54" points="255.06 88.4 255.04 91.4 253.02 91.4 253.04 88.4 255.06 88.4"/><polygon class="cls-55" points="257.07 88.4 257.05 91.4 255.04 91.4 255.06 88.4 257.07 88.4"/><polygon class="cls-56" points="259.09 88.4 259.07 91.4 257.05 91.4 257.07 88.4 259.09 88.4"/><polygon class="cls-57" points="261.1 88.4 261.08 91.4 259.07 91.4 259.09 88.4 261.1 88.4"/><polygon class="cls-58" points="263.12 88.4 263.1 91.4 261.08 91.4 261.1 88.4 263.12 88.4"/><polygon class="cls-59" points="265.13 88.4 265.11 91.4 263.1 91.4 263.12 88.4 265.13 88.4"/><polygon class="cls-60" points="267.15 88.4 267.13 91.4 265.11 91.4 265.13 88.4 267.15 88.4"/><polygon class="cls-61" points="269.16 88.4 269.14 91.4 267.13 91.4 267.15 88.4 269.16 88.4"/><polygon class="cls-62" points="271.18 88.4 271.16 91.4 269.14 91.4 269.16 88.4 271.18 88.4"/><polygon class="cls-63" points="273.19 88.4 273.18 91.4 271.16 91.4 271.18 88.4 273.19 88.4"/><polygon class="cls-64" points="275.21 88.4 275.19 91.4 273.18 91.4 273.19 88.4 275.21 88.4"/><polygon class="cls-65" points="277.22 88.4 277.2 91.4 275.19 91.4 275.21 88.4 277.22 88.4"/><polygon class="cls-66" points="279.24 88.4 279.22 91.4 277.2 91.4 277.22 88.4 279.24 88.4"/><polygon class="cls-67" points="281.25 88.4 281.24 91.4 279.22 91.4 279.24 88.4 281.25 88.4"/><polygon class="cls-68" points="283.27 88.4 283.25 91.4 281.24 91.4 281.25 88.4 283.27 88.4"/><polygon class="cls-69" points="285.28 88.4 285.27 91.4 283.25 91.4 283.27 88.4 285.28 88.4"/><polygon class="cls-70" points="287.3 88.4 287.28 91.4 285.27 91.4 285.28 88.4 287.3 88.4"/><polygon class="cls-71" points="289.31 88.4 289.3 91.4 287.28 91.4 287.3 88.4 289.31 88.4"/><polygon class="cls-72" points="291.33 88.4 291.31 91.4 289.3 91.4 289.31 88.4 291.33 88.4"/><polygon class="cls-73" points="293.34 88.4 293.33 91.4 291.31 91.4 291.33 88.4 293.34 88.4"/><polygon class="cls-74" points="295.36 88.4 295.34 91.4 293.33 91.4 293.34 88.4 295.36 88.4"/><polygon class="cls-74" points="297.37 88.4 297.36 91.4 295.34 91.4 295.36 88.4 297.37 88.4"/><polygon class="cls-75" points="299.39 88.4 299.37 91.4 297.36 91.4 297.37 88.4 299.39 88.4"/><polygon class="cls-76" points="301.4 88.4 301.39 91.4 299.37 91.4 299.39 88.4 301.4 88.4"/><polygon class="cls-77" points="303.42 88.4 303.4 91.4 301.39 91.4 301.4 88.4 303.42 88.4"/><polygon class="cls-78" points="305.43 88.4 305.42 91.4 303.4 91.4 303.42 88.4 305.43 88.4"/><polygon class="cls-79" points="307.45 88.4 307.43 91.4 305.42 91.4 305.43 88.4 307.45 88.4"/><polygon class="cls-79" points="309.46 88.4 309.45 91.4 307.43 91.4 307.45 88.4 309.46 88.4"/><polygon class="cls-80" points="311.48 88.4 311.46 91.4 309.45 91.4 309.46 88.4 311.48 88.4"/><polygon class="cls-80" points="313.5 88.4 313.48 91.4 311.46 91.4 311.48 88.4 313.5 88.4"/><polygon class="cls-81" points="315.51 88.4 315.49 91.4 313.48 91.4 313.5 88.4 315.51 88.4"/><polygon class="cls-82" points="317.52 88.4 317.51 91.4 315.49 91.4 315.51 88.4 317.52 88.4"/><polygon class="cls-83" points="319.54 88.4 319.52 91.4 317.51 91.4 317.52 88.4 319.54 88.4"/><polygon class="cls-84" points="321.56 88.4 321.54 91.4 319.52 91.4 319.54 88.4 321.56 88.4"/><polygon class="cls-85" points="323.57 88.4 323.55 91.4 321.54 91.4 321.56 88.4 323.57 88.4"/><polygon class="cls-85" points="325.58 88.4 325.57 91.4 323.55 91.4 323.57 88.4 325.58 88.4"/><polygon class="cls-86" points="327.6 88.4 327.58 91.4 325.57 91.4 325.58 88.4 327.6 88.4"/><polygon class="cls-86" points="329.62 88.4 329.6 91.4 327.58 91.4 327.6 88.4 329.62 88.4"/><polygon class="cls-87" points="331.63 88.4 331.61 91.4 329.6 91.4 329.62 88.4 331.63 88.4"/><polygon class="cls-87" points="333.65 88.4 333.63 91.4 331.61 91.4 331.63 88.4 333.65 88.4"/><polygon class="cls-88" points="335.66 88.4 335.64 91.4 333.63 91.4 333.65 88.4 335.66 88.4"/><polygon class="cls-89" points="337.68 88.4 337.66 91.4 335.64 91.4 335.66 88.4 337.68 88.4"/><polygon class="cls-90" points="339.69 88.4 339.67 91.4 337.66 91.4 337.68 88.4 339.69 88.4"/><polygon class="cls-91" points="341.71 88.4 341.69 91.4 339.67 91.4 339.69 88.4 341.71 88.4"/><polygon class="cls-91" points="343.72 88.4 343.7 91.4 341.69 91.4 341.71 88.4 343.72 88.4"/><polygon class="cls-92" points="345.74 88.4 345.72 91.4 343.7 91.4 343.72 88.4 345.74 88.4"/><polygon class="cls-93" points="347.75 88.4 347.74 91.4 345.72 91.4 345.74 88.4 347.75 88.4"/><polygon class="cls-94" points="349.77 88.4 349.75 91.4 347.74 91.4 347.75 88.4 349.77 88.4"/><polygon class="cls-95" points="351.78 88.4 351.76 91.4 349.75 91.4 349.77 88.4 351.78 88.4"/><polygon class="cls-96" points="353.8 88.4 353.78 91.4 351.76 91.4 351.78 88.4 353.8 88.4"/><polygon class="cls-97" points="355.81 88.4 355.8 91.4 353.78 91.4 353.8 88.4 355.81 88.4"/><polygon class="cls-97" points="357.83 88.4 357.81 91.4 355.8 91.4 355.81 88.4 357.83 88.4"/><polygon class="cls-97" points="359.84 88.4 359.83 91.4 357.81 91.4 357.83 88.4 359.84 88.4"/><polygon class="cls-98" points="361.86 88.4 361.84 91.4 359.83 91.4 359.84 88.4 361.86 88.4"/><polygon class="cls-98" points="363.87 88.4 363.86 91.4 361.84 91.4 361.86 88.4 363.87 88.4"/><polygon class="cls-99" points="365.89 88.4 365.87 91.4 363.86 91.4 363.87 88.4 365.89 88.4"/><polygon class="cls-98" points="367.9 88.4 367.89 91.4 365.87 91.4 365.89 88.4 367.9 88.4"/><polygon class="cls-99" points="369.92 88.4 369.9 91.4 367.89 91.4 367.9 88.4 369.92 88.4"/><polygon class="cls-100" points="371.93 88.4 371.92 91.4 369.9 91.4 369.92 88.4 371.93 88.4"/><polygon class="cls-100" points="373.95 88.4 373.93 91.4 371.92 91.4 371.93 88.4 373.95 88.4"/><polygon class="cls-101" points="375.96 88.4 375.95 91.4 373.93 91.4 373.95 88.4 375.96 88.4"/><polygon class="cls-102" points="377.98 88.4 377.96 91.4 375.95 91.4 375.96 88.4 377.98 88.4"/><polygon class="cls-106" points="379.99 88.4 379.98 91.4 377.96 91.4 377.98 88.4 379.99 88.4"/><polygon class="cls-107" points="382.01 88.4 381.99 91.4 379.98 91.4 379.99 88.4 382.01 88.4"/><polygon class="cls-107" points="384.02 88.4 384.01 91.4 381.99 91.4 382.01 88.4 384.02 88.4"/><polygon class="cls-108" points="386.04 88.4 386.02 91.4 384.01 91.4 384.02 88.4 386.04 88.4"/><polygon class="cls-109" points="388.05 88.4 388.04 91.4 386.02 91.4 386.04 88.4 388.05 88.4"/><polygon class="cls-110" points="390.07 88.4 390.05 91.4 388.04 91.4 388.05 88.4 390.07 88.4"/><polygon class="cls-110" points="392.08 88.4 392.07 91.4 390.05 91.4 390.07 88.4 392.08 88.4"/><polygon class="cls-111" points="394.1 88.4 394.08 91.4 392.07 91.4 392.08 88.4 394.1 88.4"/><polygon class="cls-112" points="396.12 88.4 396.1 91.4 394.08 91.4 394.1 88.4 396.12 88.4"/><polygon class="cls-113" points="398.13 88.4 398.11 91.4 396.1 91.4 396.12 88.4 398.13 88.4"/><polygon class="cls-114" points="400.14 88.4 400.13 91.4 398.11 91.4 398.13 88.4 400.14 88.4"/><polygon class="cls-115" points="402.16 88.4 402.14 91.4 400.13 91.4 400.14 88.4 402.16 88.4"/><polygon class="cls-116" points="404.18 88.4 404.16 91.4 402.14 91.4 402.16 88.4 404.18 88.4"/><polygon class="cls-117" points="406.19 88.4 406.17 91.4 404.16 91.4 404.18 88.4 406.19 88.4"/><polygon class="cls-117" points="408.21 88.4 408.19 91.4 406.17 91.4 406.19 88.4 408.21 88.4"/><polygon class="cls-118" points="410.22 88.4 410.2 91.4 408.19 91.4 408.21 88.4 410.22 88.4"/><polygon class="cls-118" points="412.24 88.4 412.22 91.4 410.2 91.4 410.22 88.4 412.24 88.4"/><polygon class="cls-119" points="414.25 88.4 414.23 91.4 412.22 91.4 412.24 88.4 414.25 88.4"/><polygon class="cls-119" points="416.27 88.4 416.25 91.4 414.23 91.4 414.25 88.4 416.27 88.4"/><polygon class="cls-119" points="418.28 88.4 418.26 91.4 416.25 91.4 416.27 88.4 418.28 88.4"/><polygon class="cls-120" points="420.3 88.4 420.28 91.4 418.26 91.4 418.28 88.4 420.3 88.4"/><polygon class="cls-121" points="422.31 88.4 422.3 91.4 420.28 91.4 420.3 88.4 422.31 88.4"/><polygon class="cls-122" points="424.33 88.4 424.31 91.4 422.3 91.4 422.31 88.4 424.33 88.4"/><polygon class="cls-122" points="426.34 88.4 426.32 91.4 424.31 91.4 424.33 88.4 426.34 88.4"/><polygon class="cls-122" points="428.36 88.4 428.34 91.4 426.32 91.4 426.34 88.4 428.36 88.4"/><polygon class="cls-123" points="430.37 88.4 430.36 91.4 428.34 91.4 428.36 88.4 430.37 88.4"/><polygon class="cls-123" points="432.39 88.4 432.37 91.4 430.36 91.4 430.37 88.4 432.39 88.4"/><polygon class="cls-124" points="434.4 88.4 434.38 91.4 432.37 91.4 432.39 88.4 434.4 88.4"/><polygon class="cls-124" points="436.42 88.4 436.4 91.4 434.38 91.4 434.4 88.4 436.42 88.4"/><polygon class="cls-125" points="438.43 88.4 438.42 91.4 436.4 91.4 436.42 88.4 438.43 88.4"/><polygon class="cls-126" points="440.45 88.4 440.43 91.4 438.42 91.4 438.43 88.4 440.45 88.4"/><polygon class="cls-127" points="442.46 88.4 442.45 91.4 440.43 91.4 440.45 88.4 442.46 88.4"/><polygon class="cls-128" points="444.48 88.4 444.46 91.4 442.45 91.4 442.46 88.4 444.48 88.4"/><polygon class="cls-128" points="446.49 88.4 446.48 91.4 444.46 91.4 444.48 88.4 446.49 88.4"/><polygon class="cls-129" points="448.51 88.4 448.49 91.4 446.48 91.4 446.49 88.4 448.51 88.4"/><polygon class="cls-130" points="450.52 88.4 450.51 91.4 448.49 91.4 448.51 88.4 450.52 88.4"/><polygon class="cls-130" points="452.54 88.4 452.52 91.4 450.51 91.4 450.52 88.4 452.54 88.4"/><polygon class="cls-131" points="454.55 88.4 454.54 91.4 452.52 91.4 452.54 88.4 454.55 88.4"/><polygon class="cls-131" points="456.57 88.4 456.55 91.4 454.54 91.4 454.55 88.4 456.57 88.4"/><polygon class="cls-132" points="458.58 88.4 458.57 91.4 456.55 91.4 456.57 88.4 458.58 88.4"/><polygon class="cls-133" points="460.6 88.4 460.58 91.4 458.57 91.4 458.58 88.4 460.6 88.4"/><polygon class="cls-134" points="462.61 88.4 462.6 91.4 460.58 91.4 460.6 88.4 462.61 88.4"/><polygon class="cls-135" points="464.63 88.4 464.61 91.4 462.6 91.4 462.61 88.4 464.63 88.4"/><polygon class="cls-136" points="466.64 88.4 466.63 91.4 464.61 91.4 464.63 88.4 466.64 88.4"/><polygon class="cls-137" points="468.66 88.4 468.64 91.4 466.63 91.4 466.64 88.4 468.66 88.4"/><polygon class="cls-138" points="470.68 88.4 470.66 91.4 468.64 91.4 468.66 88.4 470.68 88.4"/><polygon class="cls-139" points="472.69 88.4 472.67 91.4 470.66 91.4 470.68 88.4 472.69 88.4"/><polygon class="cls-138" points="474.7 88.4 474.69 91.4 472.67 91.4 472.69 88.4 474.7 88.4"/><polygon class="cls-140" points="476.72 88.4 476.7 91.4 474.69 91.4 474.7 88.4 476.72 88.4"/><polygon class="cls-141" points="478.74 88.4 478.72 91.4 476.7 91.4 476.72 88.4 478.74 88.4"/><polygon class="cls-142" points="480.75 88.4 480.73 91.4 478.72 91.4 478.74 88.4 480.75 88.4"/><polygon class="cls-142" points="482.76 88.4 482.75 91.4 480.73 91.4 480.75 88.4 482.76 88.4"/><polygon class="cls-142" points="484.78 88.4 484.76 91.4 482.75 91.4 482.76 88.4 484.78 88.4"/><polygon class="cls-143" points="486.8 88.4 486.78 91.4 484.76 91.4 484.78 88.4 486.8 88.4"/><polygon class="cls-144" points="488.81 88.4 488.79 91.4 486.78 91.4 486.8 88.4 488.81 88.4"/><polygon class="cls-145" points="490.83 88.4 490.81 91.4 488.79 91.4 488.81 88.4 490.83 88.4"/><polygon class="cls-145" points="492.84 88.4 492.82 91.4 490.81 91.4 490.83 88.4 492.84 88.4"/><polygon class="cls-146" points="494.86 88.4 494.84 91.4 492.82 91.4 492.84 88.4 494.86 88.4"/><polygon class="cls-147" points="494.84 91.4 494.86 88.4 496.72 88.4 496.72 91.4 494.84 91.4"/></g></g></g></svg>